#VRML V2.0 utf8
# 3D model generated by kicad-lcsc-manager
# Based on easyeda2kicad.py v1.0.1

Shape{
    appearance Appearance {
        material  Material {
            diffuseColor 0.20784313725490197 0.20784313725490197 0.20784313725490197
            specularColor 0.01568627450980392 0.01568627450980392 0.01568627450980392
            ambientIntensity 0.298
            transparency 0.0
            shininess 0.5
        }
    }
    geometry IndexedFaceSet {
        ccw TRUE
        solid FALSE
        coord DEF co Coordinate {
            point [
                1.378 -0.1476 0.1299, 1.378 -1.3815 0.1299, 1.378 -0.1476 -0.1457, 1.378 -1.3815 -0.1457, -1.2152 -1.6634 0.1299, 1.2152 -1.6634 0.1299, -1.378 -1.3815 0.1299, -1.378 -0.1476 0.1299, -1.378 -0.1476 -0.1457, -1.378 -1.3815 -0.1457, 1.2152 -1.6634 -0.1457, -1.2152 -1.6634 -0.1457, 1.1811 -1.7224 -0.0866, 1.1811 -1.7224 0.0709, -1.1811 -1.7224 -0.0866, -1.1811 -1.7224 0.0709, 1.5692 -0.1476 -0.283, 1.594 -0.1476 -0.2123, 1.6024 -0.1476 -0.1378, 1.6024 -0.1476 0.122, -1.5294 -0.1476 -0.3464, -1.4764 -0.1476 -0.3994, -1.2677 -0.1476 -0.4724, 1.2677 -0.1476 -0.4724, 1.3422 -0.1476 -0.4641, 1.4129 -0.1476 -0.4393, 1.4764 -0.1476 -0.3994, 1.5294 -0.1476 -0.3464, 1.3422 -0.1476 0.4483, 1.2677 -0.1476 0.4567, 1.594 -0.1476 0.1965, 1.5692 -0.1476 0.2672, 1.5294 -0.1476 0.3307, -1.6024 -0.1476 -0.1378, -1.6024 -0.1476 0.122, -1.594 -0.1476 -0.2123, -1.5692 -0.1476 -0.283, -1.2677 -0.1476 0.4567, -1.3422 -0.1476 0.4483, -1.4129 -0.1476 -0.4393, -1.3422 -0.1476 -0.4641, -1.5294 -0.1476 0.3307, -1.5692 -0.1476 0.2672, -1.594 -0.1476 0.1965, -1.4129 -0.1476 0.4236, -1.4764 -0.1476 0.3837, 1.4764 -0.1476 0.3837, 1.4129 -0.1476 0.4236, -1.6417 0.7185 -0.5906, -1.6417 0.7185 -0.2953, -1.1024 0.7185 -0.2953, -1.2677 0.7185 0.4961, -1.1024 0.7185 0.4961, -1.1811 0.7185 0.0591, 0.8661 0.7185 0.1233, 0.8661 0.7185 0.4961, 1.1024 0.7185 0.4961, 1.5601 0.7185 0.3552, 1.6047 0.7185 0.2843, 1.6324 0.7185 0.2053, 1.6417 0.7185 -0.2953, 1.4902 0.7185 -0.2953, 1.6417 0.7185 0.122, 1.4902 0.7185 0.4212, 1.5009 0.7185 0.4145, 1.1811 0.7185 0.0591, 1.1811 0.7185 -0.0, 1.1024 0.7185 -0.2953, 1.3386 0.7185 -0.0, 1.3386 0.7185 0.0591, 1.43 0.7185 0.459, 1.3509 0.7185 0.4867, 1.0236 0.7185 0.0591, 0.8661 0.7185 0.0591, 0.7972 0.7185 0.1631, 0.8661 0.7185 -0.0, 1.0236 0.7185 -0.0, 0.7972 0.7185 -0.2953, 1.2677 0.7185 0.4961, 0.5906 0.7185 0.2824, 0.6496 0.7185 0.0591, 0.6496 0.7185 -0.0, 0.7283 0.7185 0.0591, 0.7283 0.7185 -0.0, 0.5906 0.7185 -0.2953, 0.4528 0.7185 0.0591, 0.3937 0.7185 0.396, 0.5315 0.7185 0.0591, 0.5315 0.7185 -0.0, 0.4528 0.7185 -0.0, 0.3937 0.7185 -0.2953, 0.1378 0.7185 0.0591, 0.0591 0.7185 0.0591, 0.0 0.7185 0.4882, 0.2151 0.7185 0.4882, 0.2335 0.7185 0.4858, 0.2506 0.7185 0.4787, 0.1378 0.7185 -0.0, 0.0591 0.7185 -0.0, 0.0 0.7185 -0.2953, 0.3346 0.7185 0.0591, 0.2559 0.7185 0.0591, 0.2559 0.7185 -0.0, 0.3346 0.7185 -0.0, -0.1378 0.7185 0.0591, -0.1378 0.7185 -0.0, -0.1969 0.7185 -0.2953, -0.0591 0.7185 -0.0, -0.0591 0.7185 0.0591, -0.1969 0.7185 0.4882, -0.3937 0.7185 -0.2953, -0.3346 0.7185 -0.0, -0.2559 0.7185 -0.0, -0.2559 0.7185 0.0591, -0.3346 0.7185 0.0591, -0.3937 0.7185 0.396, -0.2506 0.7185 0.4787, -0.2335 0.7185 0.4858, -0.2151 0.7185 0.4882, -0.5906 0.7185 -0.2953, -0.5906 0.7185 0.2824, -0.5315 0.7185 -0.0, -0.5315 0.7185 0.0591, -0.4528 0.7185 -0.0, -0.4528 0.7185 0.0591, -0.7972 0.7185 0.1631, -0.7283 0.7185 0.0591, -0.7283 0.7185 -0.0, -0.6496 0.7185 0.0591, -0.6496 0.7185 -0.0, -0.7972 0.7185 -0.2953, -0.8661 0.7185 0.4961, -0.8661 0.7185 0.1233, -1.6417 0.7185 0.122, -1.3386 0.7185 0.0591, -1.3386 0.7185 -0.0, -1.1811 0.7185 -0.0, -1.0236 0.7185 0.0591, -0.8661 0.7185 0.0591, -0.8661 0.7185 -0.0, -1.0236 0.7185 -0.0, -1.5009 0.7185 0.4145, -1.43 0.7185 0.459, -1.3509 0.7185 0.4867, -1.6324 0.7185 0.2053, -1.6047 0.7185 0.2843, -1.5601 0.7185 0.3552, -1.1024 0.7185 -0.5906, -0.7972 0.7185 -0.5906, -0.5906 0.7185 -0.5906, -0.3937 0.7185 -0.5906, -0.1969 0.7185 -0.5906, 0.0 0.7185 -0.5906, 0.3937 0.7185 -0.5906, 0.5906 0.7185 -0.5906, 0.7972 0.7185 -0.5906, 1.1024 0.7185 -0.5906, 1.4902 0.7185 -0.5906, 1.6417 0.7185 -0.5906, 1.6417 0.4823 -0.1378, 1.6417 0.4823 -0.5906, 1.6417 -0.1083 0.122, 1.6417 -0.1083 -0.1378, 1.6324 -0.1083 0.2053, 1.6047 -0.1083 0.2843, 1.5601 -0.1083 0.3552, 1.5009 -0.1083 0.4145, 1.43 -0.1083 0.459, 1.3509 -0.1083 0.4867, 1.2677 -0.1083 0.4961, 0.8661 0.4429 0.4961, -1.2677 -0.1083 0.4961, -0.8661 0.4429 0.4961, -1.3509 -0.1083 0.4867, -1.43 -0.1083 0.459, -1.5009 -0.1083 0.4145, -1.5601 -0.1083 0.3552, -1.6047 -0.1083 0.2843, -1.6324 -0.1083 0.2053, -1.6417 -0.1083 0.122, -1.6417 0.4823 -0.1378, -1.6417 -0.1083 -0.1378, -1.6417 0.4823 -0.5906, -1.6324 0.4823 -0.221, -1.6324 -0.1083 -0.221, -1.6047 0.4823 -0.3001, -1.6047 -0.1083 -0.3001, -1.5601 0.4823 -0.371, -1.5601 -0.1083 -0.371, -1.5009 0.4823 -0.4302, -1.5009 -0.1083 -0.4302, -1.43 0.4823 -0.4748, -1.43 -0.1083 -0.4748, -1.3509 0.4823 -0.5024, -1.3509 -0.1083 -0.5024, -1.2677 0.4823 -0.5118, -1.2677 -0.1083 -0.5118, 1.2677 0.4823 -0.5118, 1.2677 -0.1083 -0.5118, 1.3509 0.4823 -0.5024, 1.3509 -0.1083 -0.5024, 1.43 0.4823 -0.4748, 1.43 -0.1083 -0.4748, 1.5009 0.4823 -0.4302, 1.5009 -0.1083 -0.4302, 1.5601 0.4823 -0.371, 1.5601 -0.1083 -0.371, 1.6047 0.4823 -0.3001, 1.6047 -0.1083 -0.3001, 1.6324 0.4823 -0.221, 1.6324 -0.1083 -0.221, 0.2506 0.4429 0.4787, 0.2335 0.4429 0.4858, 0.2151 0.4429 0.4882, 0.8661 0.4429 0.1233, -0.8661 0.4429 0.1233, -0.2506 0.4429 0.4787, -0.2151 0.4429 0.4882, -0.2335 0.4429 0.4858
            ]
        }
        coordIndex [
            0,1,2,-1,2,1,3,-1,4,5,6,-1,6,5,1,-1,6,1,7,-1,7,1,0,-1,8,9,7,-1,7,9,6,-1,8,2,3,-1,10,11,3,-1,3,11,9,-1,3,9,8,-1,12,13,14,-1,14,13,15,-1,14,15,11,-1,11,15,4,-1,11,4,9,-1,9,4,6,-1,3,1,10,-1,10,1,5,-1,10,5,12,-1,12,5,13,-1,10,12,11,-1,11,12,14,-1,4,15,5,-1,5,15,13,-1,16,17,2,-1,2,17,18,-1,2,18,0,-1,0,18,19,-1,8,20,21,-1,2,8,22,-1,22,23,2,-1,2,23,24,-1,2,24,25,-1,25,26,2,-1,2,26,27,-1,2,27,16,-1,28,29,0,-1,19,30,0,-1,0,30,31,-1,0,31,32,-1,33,8,34,-1,34,8,7,-1,33,35,8,-1,8,35,36,-1,8,36,20,-1,0,29,7,-1,7,29,37,-1,7,37,38,-1,21,39,8,-1,8,39,40,-1,8,40,22,-1,41,42,7,-1,7,42,43,-1,7,43,34,-1,38,44,7,-1,7,44,45,-1,7,45,41,-1,32,46,0,-1,0,46,47,-1,0,47,28,-1,48,49,50,-1,51,52,53,-1,54,55,56,-1,57,58,59,-1,60,61,62,-1,62,61,63,-1,62,63,59,-1,59,63,64,-1,59,64,57,-1,65,66,67,-1,67,66,61,-1,61,66,68,-1,61,68,63,-1,63,68,69,-1,63,69,70,-1,70,69,65,-1,70,65,71,-1,56,72,54,-1,54,72,73,-1,54,73,74,-1,74,73,75,-1,76,67,75,-1,75,67,77,-1,75,77,74,-1,76,72,67,-1,67,72,56,-1,67,56,65,-1,65,56,78,-1,65,78,71,-1,79,80,81,-1,80,79,82,-1,82,79,74,-1,82,74,83,-1,83,74,77,-1,83,77,81,-1,81,77,84,-1,81,84,79,-1,85,86,87,-1,87,86,79,-1,87,79,88,-1,88,79,84,-1,88,84,89,-1,89,84,90,-1,89,90,85,-1,91,92,93,-1,93,94,91,-1,91,94,95,-1,91,95,96,-1,97,90,98,-1,98,90,99,-1,98,99,92,-1,85,90,86,-1,86,90,100,-1,86,100,101,-1,96,86,91,-1,91,86,101,-1,91,101,97,-1,97,101,102,-1,97,102,90,-1,90,102,103,-1,90,103,100,-1,104,105,106,-1,106,105,99,-1,99,105,107,-1,99,107,108,-1,92,99,93,-1,93,99,108,-1,93,108,109,-1,110,111,106,-1,106,111,112,-1,108,104,109,-1,109,104,106,-1,109,106,113,-1,113,106,112,-1,114,115,113,-1,113,115,116,-1,116,117,113,-1,113,117,118,-1,113,118,109,-1,119,120,121,-1,121,120,122,-1,119,121,110,-1,110,121,123,-1,110,123,124,-1,122,120,124,-1,124,120,115,-1,124,115,110,-1,110,115,114,-1,110,114,111,-1,125,126,127,-1,126,125,128,-1,128,125,120,-1,128,120,129,-1,129,120,119,-1,129,119,127,-1,127,119,130,-1,127,130,125,-1,52,131,132,-1,133,134,49,-1,49,134,135,-1,49,135,50,-1,50,135,136,-1,136,53,50,-1,50,53,52,-1,50,52,137,-1,137,52,132,-1,137,132,138,-1,138,132,125,-1,138,125,139,-1,139,125,130,-1,139,130,140,-1,140,130,50,-1,140,50,137,-1,141,142,53,-1,53,142,143,-1,53,143,51,-1,133,144,134,-1,134,144,145,-1,134,145,53,-1,53,145,146,-1,53,146,141,-1,48,50,147,-1,147,50,130,-1,147,130,148,-1,148,130,119,-1,148,119,149,-1,149,119,110,-1,149,110,150,-1,150,110,106,-1,150,106,151,-1,151,106,99,-1,151,99,152,-1,152,99,90,-1,152,90,153,-1,153,90,84,-1,153,84,154,-1,154,84,77,-1,154,77,155,-1,155,77,67,-1,155,67,156,-1,156,67,61,-1,156,61,157,-1,157,61,60,-1,157,60,158,-1,159,160,158,-1,161,162,62,-1,62,162,159,-1,62,159,60,-1,60,159,158,-1,161,62,59,-1,161,59,163,-1,163,59,58,-1,163,58,164,-1,164,58,57,-1,164,57,165,-1,165,57,64,-1,165,64,166,-1,166,64,63,-1,166,63,167,-1,63,70,167,-1,167,70,71,-1,167,71,168,-1,168,71,78,-1,168,78,169,-1,56,55,170,-1,78,56,169,-1,169,56,170,-1,169,170,171,-1,171,170,172,-1,172,131,171,-1,171,131,52,-1,171,52,51,-1,171,51,143,-1,171,143,173,-1,173,143,142,-1,173,142,174,-1,174,142,141,-1,174,141,175,-1,175,141,146,-1,175,146,176,-1,176,146,145,-1,176,145,177,-1,177,145,144,-1,177,144,178,-1,178,144,133,-1,178,133,179,-1,180,181,179,-1,48,182,49,-1,49,182,180,-1,49,180,133,-1,133,180,179,-1,181,180,183,-1,181,183,184,-1,184,183,185,-1,184,185,186,-1,186,185,187,-1,186,187,188,-1,188,187,189,-1,188,189,190,-1,190,189,191,-1,190,191,192,-1,192,191,193,-1,192,193,194,-1,194,193,195,-1,194,195,196,-1,197,198,195,-1,195,198,196,-1,198,197,199,-1,198,199,200,-1,200,199,201,-1,200,201,202,-1,202,201,203,-1,202,203,204,-1,204,203,205,-1,204,205,206,-1,206,205,207,-1,206,207,208,-1,208,207,209,-1,208,209,210,-1,210,209,159,-1,210,159,162,-1,37,171,173,-1,37,173,38,-1,38,173,174,-1,38,174,44,-1,44,174,175,-1,44,175,45,-1,45,175,176,-1,45,176,41,-1,41,176,177,-1,41,177,42,-1,42,177,178,-1,42,178,43,-1,43,178,179,-1,43,179,34,-1,181,33,179,-1,179,33,34,-1,29,169,37,-1,37,169,171,-1,33,181,184,-1,33,184,35,-1,35,184,186,-1,35,186,36,-1,36,186,188,-1,36,188,20,-1,20,188,190,-1,20,190,21,-1,21,190,192,-1,21,192,39,-1,39,192,194,-1,39,194,40,-1,40,194,196,-1,40,196,22,-1,19,161,163,-1,19,163,30,-1,30,163,164,-1,30,164,31,-1,31,164,165,-1,31,165,32,-1,32,165,166,-1,32,166,46,-1,46,166,167,-1,46,167,47,-1,47,167,168,-1,47,168,28,-1,28,168,169,-1,28,169,29,-1,198,23,196,-1,196,23,22,-1,18,162,19,-1,19,162,161,-1,23,198,200,-1,23,200,24,-1,24,200,202,-1,24,202,25,-1,25,202,204,-1,25,204,26,-1,26,204,206,-1,26,206,27,-1,27,206,208,-1,27,208,16,-1,16,208,210,-1,16,210,17,-1,17,210,162,-1,17,162,18,-1,211,96,95,-1,211,95,212,-1,212,95,94,-1,212,94,213,-1,54,74,214,-1,214,74,79,-1,214,79,211,-1,211,79,86,-1,211,86,96,-1,55,54,170,-1,170,54,214,-1,132,131,215,-1,215,131,172,-1,125,132,215,-1,125,215,120,-1,120,215,115,-1,115,215,216,-1,115,216,116,-1,217,118,117,-1,217,117,218,-1,218,117,116,-1,218,116,216,-1,109,118,217,-1,213,94,217,-1,217,94,93,-1,217,93,109,-1,215,172,216,-1,216,172,218,-1,170,214,211,-1,211,212,170,-1,170,212,213,-1,170,213,172,-1,172,213,217,-1,172,217,218,-1,
        ]
    }
}
Shape{
    appearance Appearance {
        material  Material {
            diffuseColor 0.8274509803921568 0.6666666666666666 0.12941176470588237
            specularColor 0.8274509803921568 0.6666666666666666 0.12941176470588237
            ambientIntensity 0.6535
            transparency 0.0
            shininess 0.5
        }
    }
    geometry IndexedFaceSet {
        ccw TRUE
        solid FALSE
        coord DEF co Coordinate {
            point [
                0.1378 0.9941 0.0591, 0.0591 0.9941 0.0591, 0.1378 0.7185 0.0591, 0.0591 0.7185 0.0591, 0.0591 0.7185 -0.0, 0.0591 0.9941 -0.0, 0.1378 0.7185 -0.0, 0.1378 0.9941 -0.0, 0.3346 0.9941 0.0591, 0.2559 0.9941 0.0591, 0.3346 0.7185 0.0591, 0.2559 0.7185 0.0591, 0.2559 0.7185 -0.0, 0.2559 0.9941 -0.0, 0.3346 0.7185 -0.0, 0.3346 0.9941 -0.0, 0.5315 0.9941 0.0591, 0.4528 0.9941 0.0591, 0.5315 0.7185 0.0591, 0.4528 0.7185 0.0591, 0.4528 0.7185 -0.0, 0.4528 0.9941 -0.0, 0.5315 0.7185 -0.0, 0.5315 0.9941 -0.0, 0.7283 0.9941 0.0591, 0.6496 0.9941 0.0591, 0.7283 0.7185 0.0591, 0.6496 0.7185 0.0591, 0.6496 0.7185 -0.0, 0.6496 0.9941 -0.0, 0.7283 0.7185 -0.0, 0.7283 0.9941 -0.0, 1.0236 0.9941 0.0591, 0.8661 0.9941 0.0591, 1.0236 0.7185 0.0591, 0.8661 0.7185 0.0591, 0.8661 0.7185 -0.0, 0.8661 0.9941 -0.0, 1.0236 0.7185 -0.0, 1.0236 0.9941 -0.0, 1.3386 0.9941 0.0591, 1.1811 0.9941 0.0591, 1.3386 0.7185 0.0591, 1.1811 0.7185 0.0591, 1.1811 0.7185 -0.0, 1.1811 0.9941 -0.0, 1.3386 0.7185 -0.0, 1.3386 0.9941 -0.0, -0.0591 0.7185 0.0591, -0.0591 0.9941 0.0591, -0.1378 0.7185 0.0591, -0.1378 0.9941 0.0591, -0.1378 0.9941 -0.0, -0.0591 0.9941 -0.0, -0.1378 0.7185 -0.0, -0.0591 0.7185 -0.0, -0.2559 0.7185 0.0591, -0.2559 0.9941 0.0591, -0.3346 0.7185 0.0591, -0.3346 0.9941 0.0591, -0.3346 0.9941 -0.0, -0.2559 0.9941 -0.0, -0.3346 0.7185 -0.0, -0.2559 0.7185 -0.0, -0.4528 0.7185 0.0591, -0.4528 0.9941 0.0591, -0.5315 0.7185 0.0591, -0.5315 0.9941 0.0591, -0.5315 0.9941 -0.0, -0.4528 0.9941 -0.0, -0.5315 0.7185 -0.0, -0.4528 0.7185 -0.0, -0.6496 0.7185 0.0591, -0.6496 0.9941 0.0591, -0.7283 0.7185 0.0591, -0.7283 0.9941 0.0591, -0.7283 0.9941 -0.0, -0.6496 0.9941 -0.0, -0.7283 0.7185 -0.0, -0.6496 0.7185 -0.0, -0.8661 0.7185 0.0591, -0.8661 0.9941 0.0591, -1.0236 0.7185 0.0591, -1.0236 0.9941 0.0591, -1.0236 0.9941 -0.0, -0.8661 0.9941 -0.0, -1.0236 0.7185 -0.0, -0.8661 0.7185 -0.0, -1.1811 0.7185 0.0591, -1.1811 0.9941 0.0591, -1.3386 0.7185 0.0591, -1.3386 0.9941 0.0591, -1.3386 0.9941 -0.0, -1.1811 0.9941 -0.0, -1.3386 0.7185 -0.0, -1.1811 0.7185 -0.0
            ]
        }
        coordIndex [
            0,1,2,-1,2,1,3,-1,4,5,6,-1,6,5,7,-1,0,7,1,-1,1,7,5,-1,6,7,2,-1,2,7,0,-1,1,5,3,-1,3,5,4,-1,8,9,10,-1,10,9,11,-1,12,13,14,-1,14,13,15,-1,8,15,9,-1,9,15,13,-1,14,15,10,-1,10,15,8,-1,9,13,11,-1,11,13,12,-1,16,17,18,-1,18,17,19,-1,20,21,22,-1,22,21,23,-1,16,23,17,-1,17,23,21,-1,22,23,18,-1,18,23,16,-1,17,21,19,-1,19,21,20,-1,24,25,26,-1,26,25,27,-1,28,29,30,-1,30,29,31,-1,24,31,25,-1,25,31,29,-1,30,31,26,-1,26,31,24,-1,25,29,27,-1,27,29,28,-1,32,33,34,-1,34,33,35,-1,36,37,38,-1,38,37,39,-1,32,39,33,-1,33,39,37,-1,38,39,34,-1,34,39,32,-1,33,37,35,-1,35,37,36,-1,40,41,42,-1,42,41,43,-1,44,45,46,-1,46,45,47,-1,40,47,41,-1,41,47,45,-1,46,47,42,-1,42,47,40,-1,41,45,43,-1,43,45,44,-1,48,49,50,-1,50,49,51,-1,52,51,53,-1,53,51,49,-1,52,53,54,-1,54,53,55,-1,50,51,54,-1,54,51,52,-1,53,49,55,-1,55,49,48,-1,56,57,58,-1,58,57,59,-1,60,59,61,-1,61,59,57,-1,60,61,62,-1,62,61,63,-1,58,59,62,-1,62,59,60,-1,61,57,63,-1,63,57,56,-1,64,65,66,-1,66,65,67,-1,68,67,69,-1,69,67,65,-1,68,69,70,-1,70,69,71,-1,66,67,70,-1,70,67,68,-1,69,65,71,-1,71,65,64,-1,72,73,74,-1,74,73,75,-1,76,75,77,-1,77,75,73,-1,76,77,78,-1,78,77,79,-1,74,75,78,-1,78,75,76,-1,77,73,79,-1,79,73,72,-1,80,81,82,-1,82,81,83,-1,84,83,85,-1,85,83,81,-1,84,85,86,-1,86,85,87,-1,82,83,86,-1,86,83,84,-1,85,81,87,-1,87,81,80,-1,88,89,90,-1,90,89,91,-1,92,91,93,-1,93,91,89,-1,92,93,94,-1,94,93,95,-1,90,91,94,-1,94,91,92,-1,93,89,95,-1,95,89,88,-1,
        ]
    }
}
Shape{
    appearance Appearance {
        material  Material {
            diffuseColor 0.20784313725490197 0.20784313725490197 0.20784313725490197
            specularColor 0.01568627450980392 0.01568627450980392 0.01568627450980392
            ambientIntensity 0.298
            transparency 0.0
            shininess 0.5
        }
    }
    geometry IndexedFaceSet {
        ccw TRUE
        solid FALSE
        coord DEF co Coordinate {
            point [
                -1.6417 0.4823 -0.5906, -1.6417 0.7185 -0.5906, -1.1024 0.7185 -0.5906, -0.7972 0.7185 -0.5906, -0.5906 0.7185 -0.5906, -0.3937 0.7185 -0.5906, -0.1969 0.7185 -0.5906, 0.0 0.7185 -0.5906, 1.6417 0.4823 -0.5906, 0.3937 0.7185 -0.5906, 0.5906 0.7185 -0.5906, 0.7972 0.7185 -0.5906, 1.1024 0.7185 -0.5906, 1.4902 0.7185 -0.5906, 1.6417 0.7185 -0.5906, -1.6417 0.4823 -0.1378, -1.6324 0.4823 -0.221, -1.6047 0.4823 -0.3001, 1.6047 0.4823 -0.3001, 1.6324 0.4823 -0.221, 1.6417 0.4823 -0.1378, -1.3509 0.4823 -0.5024, -1.43 0.4823 -0.4748, -1.5009 0.4823 -0.4302, -1.5601 0.4823 -0.371, 1.5601 0.4823 -0.371, 1.5009 0.4823 -0.4302, 1.43 0.4823 -0.4748, 1.3509 0.4823 -0.5024, 1.2677 0.4823 -0.5118, -1.2677 0.4823 -0.5118
            ]
        }
        coordIndex [
            0,1,2,-1,2,3,0,-1,0,3,4,-1,0,4,5,-1,5,6,0,-1,0,6,7,-1,0,7,8,-1,7,9,8,-1,8,9,10,-1,8,10,11,-1,11,12,8,-1,8,12,13,-1,8,13,14,-1,15,0,16,-1,16,0,17,-1,18,8,19,-1,19,8,20,-1,21,22,0,-1,22,23,0,-1,0,23,24,-1,0,24,17,-1,18,25,8,-1,8,25,26,-1,8,26,27,-1,27,28,8,-1,8,28,29,-1,8,29,0,-1,0,29,30,-1,0,30,21,-1,
        ]
    }
}
Shape{
    appearance Appearance {
        material  Material {
            diffuseColor 0.6666666666666666 0.6666666666666666 0.6666666666666666
            specularColor 0.4666666666666667 0.4666666666666667 0.4666666666666667
            ambientIntensity 0.6667
            transparency 0.0
            shininess 0.5
        }
    }
    geometry IndexedFaceSet {
        ccw TRUE
        solid FALSE
        coord DEF co Coordinate {
            point [
                0.9843 0.2461 -0.6299, 0.9843 0.2461 -0.5118, 1.2677 0.2461 -0.6299, 1.2677 0.2461 -0.5118, 1.3772 0.2461 -0.6176, 1.3645 0.2461 -0.4991, 1.4812 0.2461 -0.5812, 1.4547 0.2461 -0.4617, 1.5746 0.2461 -0.5226, 1.5322 0.2461 -0.4023, 1.6397 0.2461 0.1614, 1.7583 0.2461 0.1614, 1.6417 0.2461 0.122, 1.7598 0.2461 0.122, 1.6417 0.2461 -0.1378, 1.7598 0.2461 -0.1378, 1.629 0.2461 -0.2346, 1.7475 0.2461 -0.2473, 1.5916 0.2461 -0.3248, 1.7111 0.2461 -0.3513, 1.6525 0.2461 -0.4446, 0.9724 -1.4075 -0.6299, 1.2677 -1.4075 -0.6299, 1.2677 -1.8405 -0.6299, -0.3371 -0.2508 -0.6299, -0.3758 -0.2465 -0.6299, -0.2519 0.0447 -0.6299, -0.8268 0.4823 -0.6299, -0.2065 0.4823 -0.6299, -0.9055 0.4036 -0.6299, -0.3027 -0.2916 -0.6299, -0.2904 -0.2908 -0.6299, -0.2065 -0.2916 -0.6299, -0.2449 -0.2784 -0.6299, -0.2449 -0.2256 -0.6299, -0.2892 -0.2446 -0.6299, -0.2449 0.0408 -0.6299, -0.773 -0.2892 -0.6299, -0.9449 0.2566 -0.6299, -0.773 0.1045 -0.6299, -0.9286 0.2691 -0.6299, -0.5713 0.1045 -0.6299, -0.9161 0.2854 -0.6299, -0.9082 0.3044 -0.6299, -0.9055 0.3248 -0.6299, -1.2677 0.2461 -0.6299, -0.9843 0.2461 -0.6299, -0.9639 0.2488 -0.6299, -0.4053 -0.2358 -0.6299, -0.4325 -0.2176 -0.6299, -0.4563 -0.1914 -0.6299, -0.4849 -0.0882 -0.6299, -0.4809 -0.0456 -0.6299, -0.4702 -0.0117 -0.6299, -0.3826 0.0619 -0.6299, -0.3459 0.066 -0.6299, -0.4113 0.0514 -0.6299, -0.4355 0.0351 -0.6299, -0.454 0.0156 -0.6299, -0.2937 0.0602 -0.6299, -0.4715 0.0709 -0.6299, -0.5713 0.0612 -0.6299, -0.4399 0.0911 -0.6299, -0.4017 0.1042 -0.6299, -0.4726 -0.161 -0.6299, -0.483 -0.1188 -0.6299, -0.895 0.4429 -0.6299, -0.8824 0.4592 -0.6299, -0.8661 0.4717 -0.6299, -0.5168 -0.1858 -0.6299, -0.4937 -0.2226 -0.6299, -0.7202 -0.2892 -0.6299, -0.4581 -0.2568 -0.6299, -0.4206 -0.2782 -0.6299, -0.2449 0.084 -0.6299, -0.2868 0.1013 -0.6299, -0.3424 0.1091 -0.6299, -0.9028 0.4239 -0.6299, -0.8472 0.4796 -0.6299, -0.5011 0.0397 -0.6299, -0.5221 0.0023 -0.6299, -0.7202 0.0612 -0.6299, -0.3767 -0.2909 -0.6299, -0.3672 -0.2916 -0.6299, -1.2677 -0.2916 -0.6299, -0.3532 0.1093 -0.6299, -0.5339 -0.0394 -0.6299, -0.5377 -0.085 -0.6299, -0.5321 -0.1409 -0.6299, -0.9521 -1.4048 -0.6299, -0.9331 -1.3969 -0.6299, -0.2065 -1.8405 -0.6299, -0.9168 -1.3844 -0.6299, -0.9042 -1.3681 -0.6299, -0.9724 -1.4075 -0.6299, -1.2677 -1.8405 -0.6299, -1.2677 -1.4075 -0.6299, -0.8964 -1.3491 -0.6299, -0.8937 -1.3287 -0.6299, -0.9042 -0.6594 -0.6299, -0.9168 -0.6431 -0.6299, -0.8937 -0.6988 -0.6299, -0.8964 -0.6784 -0.6299, -0.3375 -0.294 -0.6299, -0.9331 -0.6306 -0.6299, -0.9521 -0.6228 -0.6299, -0.9724 -0.6201 -0.6299, -1.2677 -0.6201 -0.6299, 0.9168 -0.6431 -0.6299, 0.9042 -0.6594 -0.6299, 1.2677 -0.6201 -0.6299, 0.9724 -0.6201 -0.6299, 1.2677 -0.2916 -0.6299, 0.9521 -0.6228 -0.6299, 0.9331 -0.6306 -0.6299, 0.8964 -1.3491 -0.6299, 0.9042 -1.3681 -0.6299, 0.9168 -1.3844 -0.6299, 0.9331 -1.3969 -0.6299, 0.9521 -1.4048 -0.6299, 0.8964 -0.6784 -0.6299, 0.8937 -0.6988 -0.6299, 0.8937 -1.3287 -0.6299, 0.9639 0.2488 -0.6299, 0.821 0.1045 -0.6299, 0.4314 -0.0447 -0.6299, 0.4173 -0.0035 -0.6299, 0.4657 0.1045 -0.6299, 0.3947 0.0317 -0.6299, 0.3623 0.0628 -0.6299, 0.9055 0.3248 -0.6299, 0.9082 0.3044 -0.6299, 0.7634 0.1045 -0.6299, 0.7236 -0.006 -0.6299, 0.5609 -0.006 -0.6299, 0.5233 0.1045 -0.6299, 0.0336 -0.246 -0.6299, -0.1152 -0.246 -0.6299, -0.1152 -0.1164 -0.6299, 0.3212 0.0867 -0.6299, 0.2759 0.1002 -0.6299, 0.2271 0.1045 -0.6299, 0.12 0.1045 -0.6299, 0.9028 0.4239 -0.6299, 0.9055 0.4036 -0.6299, 0.8268 0.4823 -0.6299, 0.288 -0.2832 -0.6299, 0.3339 -0.2671 -0.6299, 0.6146 -0.2892 -0.6299, 0.6674 -0.2892 -0.6299, 0.12 -0.2892 -0.6299, 0.024 -0.1164 -0.6299, 0.024 -0.0732 -0.6299, 0.8661 0.4717 -0.6299, 0.8824 0.4592 -0.6299, 0.895 0.4429 -0.6299, 0.9161 0.2854 -0.6299, 0.9286 0.2691 -0.6299, 0.9449 0.2566 -0.6299, -0.1152 -0.0732 -0.6299, -0.1152 0.0612 -0.6299, 0.0432 0.0612 -0.6299, 0.0432 0.1045 -0.6299, -0.168 0.1045 -0.6299, 0.2311 -0.2892 -0.6299, 0.8472 0.4796 -0.6299, 0.0336 -0.2892 -0.6299, -0.168 -0.2892 -0.6299, 0.3768 -0.2384 -0.6299, 0.3776 -0.2376 -0.6299, 0.4054 -0.2068 -0.6299, 0.4236 -0.1729 -0.6299, 0.4341 -0.1341 -0.6299, 0.4369 -0.0973 -0.6299, 0.1575 0.4036 0.6142, 0.1575 0.3839 0.6142, 0.1575 0.4036 0.4961, 0.1575 0.3839 0.4961, 2.2717 0.7185 -0.1969, 2.1535 0.7185 -0.1969, 2.2717 0.7185 -0.0197, 2.1535 0.7185 -0.0197, 2.267 0.7185 0.016, 2.153 0.7185 -0.0153, 2.2532 0.7185 0.0492, 2.1516 0.7185 -0.0111, 2.2313 0.7185 0.0778, 1.5322 0.7185 0.3865, 1.6525 0.7185 0.4289, 1.5916 0.7185 0.3091, 1.7111 0.7185 0.3356, 1.629 0.7185 0.2188, 1.7475 0.7185 0.2316, 1.6417 0.7185 0.122, 1.7598 0.7185 0.122, 1.6417 0.7185 0.1181, 0.874 0.7185 0.4961, 0.874 0.7185 0.6142, 1.2677 0.7185 0.4961, 1.2677 0.7185 0.6142, 1.3645 0.7185 0.4833, 1.3772 0.7185 0.6018, 1.4547 0.7185 0.446, 1.4812 0.7185 0.5654, 1.5746 0.7185 0.5068, 1.6458 0.7185 0.0875, 1.7598 0.7185 0.1181, 1.6576 0.7185 0.0591, 2.1492 0.7185 -0.0074, 2.1461 0.7185 -0.0043, 2.2028 0.7185 0.0996, 2.1424 0.7185 -0.0019, 2.1695 0.7185 0.1134, 2.1382 0.7185 -0.0005, 2.1339 0.7185 0.1181, 2.1339 0.7185 -0.0, 1.7598 0.7185 -0.0, 1.7293 0.7185 0.004, 1.7008 0.7185 0.0158, 1.6763 0.7185 0.0346, 1.7598 -1.4075 -0.1378, 1.7598 -1.8405 -0.1378, 1.7475 -1.8405 -0.2473, 1.7475 -1.4075 -0.2473, 1.7111 -1.8405 -0.3513, 1.7111 -1.4075 -0.3513, 1.6525 -1.8405 -0.4446, 1.6525 -1.4075 -0.4446, 1.5746 -1.8405 -0.5226, 1.5746 -1.4075 -0.5226, 1.4812 -1.8405 -0.5812, 1.4812 -1.4075 -0.5812, 1.3772 -1.8405 -0.6176, 1.3772 -1.4075 -0.6176, 1.7598 -1.8405 0.122, 1.7598 -1.4075 0.122, 1.2677 -1.4075 -0.5118, 1.2677 -1.8405 -0.5118, 1.3645 -1.4075 -0.4991, 1.3645 -1.8405 -0.4991, 1.4547 -1.4075 -0.4617, 1.4547 -1.8405 -0.4617, 1.5322 -1.4075 -0.4023, 1.5322 -1.8405 -0.4023, 1.5916 -1.4075 -0.3248, 1.5916 -1.8405 -0.3248, 1.629 -1.4075 -0.2346, 1.629 -1.8405 -0.2346, 1.6417 -1.4075 -0.1378, 1.6417 -1.8405 -0.1378, 1.6417 -1.4075 0.122, 1.6417 -1.8405 0.122, 1.7598 -0.6201 -0.1378, 1.7475 -0.6201 -0.2473, 1.3772 -0.6201 -0.6176, 1.7111 -0.6201 -0.3513, 1.6525 -0.6201 -0.4446, 1.5746 -0.6201 -0.5226, 1.4812 -0.6201 -0.5812, -0.874 0.3839 0.6142, -0.874 0.7185 0.6142, -1.2677 0.7185 0.6142, -0.2151 0.7185 0.6142, 0.187 0.4547 0.6142, 0.2151 0.7185 0.6142, 0.2013 0.4606 0.6142, 0.2151 0.4626 0.6142, -0.2151 0.4626 0.6142, -0.2013 0.4606 0.6142, -0.187 0.4547 0.6142, -0.1748 0.4453 0.6142, 0.1748 0.4453 0.6142, 0.2165 0.3248 0.6142, 0.2013 0.3268 0.6142, -0.1595 0.3686 0.6142, 0.187 0.3327 0.6142, 0.1748 0.3421 0.6142, 1.2677 -1.8405 0.6142, 0.8567 0.3421 0.6142, 0.8445 0.3327 0.6142, 0.874 0.3839 0.6142, 0.872 0.3686 0.6142, 0.8661 0.3543 0.6142, -0.8445 0.3327 0.6142, -0.8567 0.3421 0.6142, -1.2677 -1.8405 0.6142, -0.8661 0.3543 0.6142, -0.872 0.3686 0.6142, -0.1654 0.4331 0.6142, 0.1595 0.4188 0.6142, 0.1654 0.4331 0.6142, -0.1595 0.4188 0.6142, -0.1575 0.4036 0.6142, 0.8302 0.3268 0.6142, 0.815 0.3248 0.6142, -0.2013 0.3268 0.6142, -0.2165 0.3248 0.6142, -0.815 0.3248 0.6142, -0.8302 0.3268 0.6142, 0.1654 0.3543 0.6142, 0.1595 0.3686 0.6142, -0.1654 0.3543 0.6142, -0.1748 0.3421 0.6142, -0.187 0.3327 0.6142, -0.1575 0.3839 0.6142, 1.7479 0.3642 0.2296, 1.7506 0.3805 0.2171, 1.7535 0.393 0.2008, 1.7562 0.4009 0.1818, 1.7573 0.4029 0.1717, 1.7583 0.4036 0.1614, 1.7598 0.4036 0.122, 1.7111 -1.8405 0.3356, 1.7461 -0.7192 0.2375, 1.7456 -0.7091 0.2395, 1.7456 0.3145 0.2395, 1.7455 0.3248 0.2402, 1.7455 -0.6988 0.2402, 1.7461 0.3044 0.2375, 1.7456 0.3351 0.2395, 1.7461 0.3452 0.2375, 1.7475 0.3606 0.2316, 1.7475 -0.663 0.2316, 1.7479 -0.6594 0.2296, 1.7506 0.2691 0.2171, 1.7506 -0.6431 0.2171, 1.7535 0.2566 0.2008, 1.7535 -0.6306 0.2008, 1.7562 -0.6228 0.1818, 1.7562 0.2488 0.1818, 1.7573 -0.6207 0.1717, 1.7598 -0.6201 0.122, 1.7583 -0.6201 0.1614, 1.7573 0.2467 0.1717, 1.7456 -0.6885 0.2395, 1.7461 -0.6784 0.2375, 1.7475 0.289 0.2316, 1.7479 0.2854 0.2296, 1.7475 -1.2929 0.2316, 1.7479 -1.2894 0.2296, 1.7506 -0.7545 0.2171, 1.7506 -1.2731 0.2171, 1.7535 -0.767 0.2008, 1.7535 -1.2605 0.2008, 1.7562 -1.2527 0.1818, 1.7562 -0.7749 0.1818, 1.7573 -1.2507 0.1717, 1.7598 -1.25 0.122, 1.7598 -0.7776 0.122, 1.7583 -1.25 0.1614, 1.7583 -0.7776 0.1614, 1.7573 -0.7769 0.1717, 1.7456 -1.339 0.2395, 1.7455 -1.3287 0.2402, 1.7456 -1.3184 0.2395, 1.7461 -1.3084 0.2375, 1.7475 -0.7346 0.2316, 1.7479 -0.7382 0.2296, 1.7573 -1.4068 0.1717, 1.7562 -1.4048 0.1818, 1.7475 -1.8405 0.2316, 1.7535 -1.3969 0.2008, 1.7506 -1.3844 0.2171, 1.7583 -1.4075 0.1614, 1.7479 -1.3681 0.2296, 1.7475 -1.3645 0.2316, 1.7461 -1.3491 0.2375, 1.6525 -1.8405 0.4289, 1.5746 -1.8405 0.5068, 1.4812 -1.8405 0.5654, 1.3772 -1.8405 0.6018, -1.5322 -1.8405 -0.4023, -1.5746 -1.8405 -0.5226, -1.4547 -1.8405 -0.4617, -1.4812 -1.8405 -0.5812, -1.3645 -1.8405 -0.4991, -1.3772 -1.8405 -0.6176, -1.2677 -1.8405 -0.5118, -1.4547 -1.8405 0.446, -1.5746 -1.8405 0.5068, -1.5322 -1.8405 0.3865, -1.6525 -1.8405 0.4289, -1.5916 -1.8405 0.3091, -1.7111 -1.8405 0.3356, -1.629 -1.8405 0.2188, -1.7475 -1.8405 0.2316, -1.6417 -1.8405 0.122, -1.7598 -1.8405 0.122, -1.6417 -1.8405 -0.1378, -1.7598 -1.8405 -0.1378, -1.629 -1.8405 -0.2346, -1.7475 -1.8405 -0.2473, -1.5916 -1.8405 -0.3248, -1.7111 -1.8405 -0.3513, -1.6525 -1.8405 -0.4446, 1.629 -1.8405 0.2188, 1.5916 -1.8405 0.3091, 1.5322 -1.8405 0.3865, 1.4547 -1.8405 0.446, 1.3645 -1.8405 0.4833, 1.2677 -1.8405 0.4961, -1.2677 -1.8405 0.4961, -1.3645 -1.8405 0.4833, -1.3772 -1.8405 0.6018, -1.4812 -1.8405 0.5654, 1.2677 -0.6201 -0.5118, 1.3645 -0.6201 -0.4991, 1.4547 -0.6201 -0.4617, 1.5322 -0.6201 -0.4023, 1.5916 -0.6201 -0.3248, 1.629 -0.6201 -0.2346, 1.6417 -0.6201 -0.1378, -0.8964 -0.6784 -0.5118, -0.8937 -0.6988 -0.5118, 0.9161 0.2854 -0.5118, -0.8964 -1.3491 -0.5118, -0.9042 -1.3681 -0.5118, 0.9168 -1.3844 -0.5118, -0.9168 -1.3844 -0.5118, 0.9331 -1.3969 -0.5118, -1.2677 -1.4075 -0.5118, -0.9724 -1.4075 -0.5118, -0.9521 -1.4048 -0.5118, 0.9521 -1.4048 -0.5118, 0.9724 -1.4075 -0.5118, -0.9331 -1.3969 -0.5118, -0.9082 0.3044 -0.5118, -0.9161 0.2854 -0.5118, 0.9331 -0.6306 -0.5118, 0.9286 0.2691 -0.5118, 0.9168 -0.6431 -0.5118, 0.9042 -0.6594 -0.5118, 0.8964 -0.6784 -0.5118, 0.8937 -0.6988 -0.5118, 0.9042 -1.3681 -0.5118, 0.8964 -1.3491 -0.5118, 0.8937 -1.3287 -0.5118, -0.9168 -0.6431 -0.5118, -0.9042 -0.6594 -0.5118, 0.9082 0.3044 -0.5118, 0.9055 0.3248 -0.5118, -0.9055 0.3248 -0.5118, 0.9055 0.4036 -0.5118, -0.9055 0.4036 -0.5118, -0.8937 -1.3287 -0.5118, 0.9724 -0.6201 -0.5118, 0.9521 -0.6228 -0.5118, 0.9639 0.2488 -0.5118, 0.9449 0.2566 -0.5118, -0.9028 0.4239 -0.5118, -0.8268 0.4823 -0.5118, 0.8268 0.4823 -0.5118, -0.9843 0.2461 -0.5118, -1.2677 0.2461 -0.5118, -1.2677 -0.6201 -0.5118, -0.9286 0.2691 -0.5118, -0.9449 0.2566 -0.5118, -0.9331 -0.6306 -0.5118, -0.9639 0.2488 -0.5118, -0.9521 -0.6228 -0.5118, -0.9724 -0.6201 -0.5118, -0.8472 0.4796 -0.5118, -0.8661 0.4717 -0.5118, 0.9028 0.4239 -0.5118, 0.895 0.4429 -0.5118, -0.8824 0.4592 -0.5118, -0.895 0.4429 -0.5118, 0.8824 0.4592 -0.5118, 0.8661 0.4717 -0.5118, 0.8472 0.4796 -0.5118, 0.874 0.3839 0.4961, -0.2013 0.4606 0.4961, -0.2151 0.4626 0.4961, -0.2151 0.7185 0.4961, -0.8567 0.3421 0.4961, -0.8445 0.3327 0.4961, -0.874 0.7185 0.4961, -0.874 0.3839 0.4961, -1.2677 0.7185 0.4961, -0.872 0.3686 0.4961, -0.8661 0.3543 0.4961, -0.2165 0.3248 0.4961, -0.2013 0.3268 0.4961, 0.1595 0.3686 0.4961, -0.187 0.3327 0.4961, -0.1748 0.3421 0.4961, 0.187 0.4547 0.4961, 0.2151 0.7185 0.4961, 0.2013 0.4606 0.4961, 0.2151 0.4626 0.4961, 0.8445 0.3327 0.4961, 0.8567 0.3421 0.4961, 0.8661 0.3543 0.4961, 0.872 0.3686 0.4961, -0.187 0.4547 0.4961, -0.1748 0.4453 0.4961, 0.1748 0.4453 0.4961, 0.2013 0.3268 0.4961, 0.2165 0.3248 0.4961, 0.815 0.3248 0.4961, 0.8302 0.3268 0.4961, -0.1575 0.4036 0.4961, -0.1595 0.4188 0.4961, 0.1595 0.4188 0.4961, 0.1654 0.4331 0.4961, -0.1654 0.4331 0.4961, -0.8302 0.3268 0.4961, -0.815 0.3248 0.4961, 0.1654 0.3543 0.4961, 0.1748 0.3421 0.4961, 0.187 0.3327 0.4961, -0.1654 0.3543 0.4961, -0.1595 0.3686 0.4961, -0.1575 0.3839 0.4961, 1.6295 0.3805 0.2171, 1.629 0.3782 0.2188, 1.6334 -1.3969 0.2008, 1.6369 -1.4048 0.1818, 1.6384 -1.4068 0.1717, 1.6397 -1.4075 0.1614, 1.6245 0.355 0.2342, 1.6235 0.3452 0.2375, 1.6259 0.3642 0.2296, 1.6228 0.3351 0.2395, 1.6226 0.3248 0.2402, 1.6228 0.3145 0.2395, 1.6259 -0.6594 0.2296, 1.6235 0.3044 0.2375, 1.6245 0.2946 0.2341, 1.6259 0.2854 0.2296, 1.629 -0.6454 0.2188, 1.629 0.2714 0.2188, 1.6295 -0.6431 0.2171, 1.6228 -0.6885 0.2395, 1.6226 -0.6988 0.2402, 1.6235 -0.6784 0.2375, 1.6245 -0.6687 0.2342, 1.6228 -0.7091 0.2395, 1.6259 -1.2894 0.2296, 1.6235 -0.7192 0.2375, 1.6245 -0.729 0.2341, 1.6259 -0.7382 0.2296, 1.629 -1.2753 0.2188, 1.629 -0.7522 0.2188, 1.6295 -1.2731 0.2171, 1.6235 -1.3084 0.2375, 1.6228 -1.3184 0.2395, 1.6245 -1.2986 0.2342, 1.6235 -1.3491 0.2375, 1.6228 -1.339 0.2395, 1.6226 -1.3287 0.2402, 1.6245 -1.3589 0.2341, 1.6259 -1.3681 0.2296, 1.629 -1.3821 0.2188, 1.6295 -1.3844 0.2171, 1.6384 -1.2507 0.1717, 1.6369 -1.2527 0.1818, 1.6334 -1.2605 0.2008, 1.6397 -1.25 0.1614, 1.6295 -0.7545 0.2171, 1.6417 -1.25 0.122, 1.6334 -0.767 0.2008, 1.6369 -0.7749 0.1818, 1.6384 -0.7769 0.1717, 1.6397 -0.7776 0.1614, 1.6417 -0.7776 0.122, 1.6384 -0.6208 0.1717, 1.6369 -0.6228 0.1818, 1.6334 -0.6306 0.2008, 1.6397 -0.6201 0.1614, 1.6295 0.2691 0.2171, 1.6417 -0.6201 0.122, 1.6334 0.2566 0.2008, 1.6369 0.2488 0.1818, 1.6384 0.2467 0.1717, 1.6384 0.4029 0.1717, 1.6369 0.4009 0.1818, 1.6334 0.393 0.2008, 1.6417 0.4036 0.122, 1.6397 0.4036 0.1614, 1.6417 -0.7776 0.1181, 1.6458 -0.7776 0.0875, 1.7598 -0.7776 0.1181, 1.6576 -0.7776 0.0591, 1.7293 -0.7776 0.004, 1.7008 -0.7776 0.0158, 1.6763 -0.7776 0.0346, 2.2717 -0.7776 -0.1969, 2.1535 -0.7776 -0.1969, 2.2717 -0.7776 -0.0197, 2.1535 -0.7776 -0.0197, 2.267 -0.7776 0.016, 2.1529 -0.7776 -0.0146, 2.2532 -0.7776 0.0492, 2.1509 -0.7776 -0.0098, 2.2313 -0.7776 0.0778, 2.1478 -0.7776 -0.0058, 2.2028 -0.7776 0.0996, 2.1437 -0.7776 -0.0026, 2.1695 -0.7776 0.1134, 2.139 -0.7776 -0.0007, 2.1339 -0.7776 0.1181, 2.1339 -0.7776 -0.0, 1.7598 -0.7776 -0.0, 1.6417 -1.25 0.1181, 1.7598 -1.25 0.1181, 1.6458 -1.25 0.0875, 1.6576 -1.25 0.0591, 1.6763 -1.25 0.0346, 1.7008 -1.25 0.0158, 2.1535 -1.25 -0.1969, 2.2717 -1.25 -0.1969, 2.1535 -1.25 -0.0197, 2.2717 -1.25 -0.0197, 2.1529 -1.25 -0.0146, 2.267 -1.25 0.016, 2.1509 -1.25 -0.0098, 2.2532 -1.25 0.0492, 2.1478 -1.25 -0.0058, 2.2313 -1.25 0.0778, 2.1437 -1.25 -0.0026, 2.2028 -1.25 0.0996, 2.139 -1.25 -0.0007, 2.1695 -1.25 0.1134, 2.1339 -1.25 -0.0, 2.1339 -1.25 0.1181, 1.7598 -1.25 -0.0, 1.7293 -1.25 0.004, 2.2717 -0.7802 -0.2172, 2.2717 -0.8563 -0.2756, 2.2717 -1.1713 -0.2756, 2.2717 -0.8169 -0.265, 2.2717 -0.8006 -0.2525, 2.2717 -0.7881 -0.2362, 2.2717 -0.8359 -0.2729, 2.2717 -1.2473 -0.2172, 2.2717 -1.2394 -0.2362, 2.2717 -1.2269 -0.2525, 2.2717 -1.2106 -0.265, 2.2717 -1.1916 -0.2729, 2.1535 -0.8563 -0.2756, 2.1535 -1.1713 -0.2756, 2.1535 -1.2473 -0.2172, 2.1535 -0.7881 -0.2362, 2.1535 -0.8006 -0.2525, 2.1535 -0.8169 -0.265, 2.1535 -0.7802 -0.2172, 2.1535 -0.8359 -0.2729, 2.1535 -1.1916 -0.2729, 2.1535 -1.2106 -0.265, 2.1535 -1.2269 -0.2525, 2.1535 -1.2394 -0.2362, -1.7583 0.2461 0.1614, -1.6397 0.2461 0.1614, -1.7598 0.2461 0.122, -1.6417 0.2461 0.122, -1.7598 0.2461 -0.1378, -1.6417 0.2461 -0.1378, -1.7475 0.2461 -0.2473, -1.629 0.2461 -0.2346, -1.7111 0.2461 -0.3513, -1.5916 0.2461 -0.3248, -1.6525 0.2461 -0.4446, -1.5322 0.2461 -0.4023, -1.5746 0.2461 -0.5226, -1.4547 0.2461 -0.4617, -1.3645 0.2461 -0.4991, -1.3772 0.2461 -0.6176, -1.4812 0.2461 -0.5812, 1.6576 0.4036 0.0591, 1.6763 0.4036 0.0346, 1.7598 0.4036 0.1181, 2.1535 0.4036 -0.1969, 2.2717 0.4036 -0.1969, 2.1535 0.4036 -0.0197, 2.2717 0.4036 -0.0197, 2.153 0.4036 -0.0153, 2.267 0.4036 0.016, 2.1516 0.4036 -0.0111, 2.2532 0.4036 0.0492, 2.1492 0.4036 -0.0074, 2.2313 0.4036 0.0778, 1.6417 0.4036 0.1181, 1.6458 0.4036 0.0875, 1.7598 0.4036 -0.0, 2.1339 0.4036 0.1181, 2.1339 0.4036 -0.0, 2.1695 0.4036 0.1134, 2.1382 0.4036 -0.0005, 2.2028 0.4036 0.0996, 2.1424 0.4036 -0.0019, 2.1461 0.4036 -0.0043, 1.7008 0.4036 0.0158, 1.7293 0.4036 0.004, 2.1535 0.6398 -0.2756, 2.1535 0.4823 -0.2756, 2.1535 0.7158 -0.2172, 2.1535 0.708 -0.2362, 2.1535 0.6954 -0.2525, 2.1535 0.6791 -0.265, 2.1535 0.6602 -0.2729, 2.1535 0.4619 -0.2729, 2.1535 0.4429 -0.265, 2.1535 0.4266 -0.2525, 2.1535 0.4141 -0.2362, 2.1535 0.4062 -0.2172, 2.2717 0.6398 -0.2756, 2.2717 0.4823 -0.2756, 2.2717 0.4266 -0.2525, 2.2717 0.4429 -0.265, 2.2717 0.4619 -0.2729, 2.2717 0.6602 -0.2729, 2.2717 0.7158 -0.2172, 2.2717 0.6791 -0.265, 2.2717 0.6954 -0.2525, 2.2717 0.708 -0.2362, 2.2717 0.4062 -0.2172, 2.2717 0.4141 -0.2362, -0.58 0.7185 0.2976, -0.6391 0.7185 0.3999, -0.2545 0.7185 0.4855, -0.3135 0.7185 0.5878, -0.2355 0.7185 0.4934, -0.2661 0.7185 0.6075, 0.2355 0.7185 0.4934, 0.2661 0.7185 0.6075, 0.2545 0.7185 0.4855, 0.3135 0.7185 0.5878, 0.58 0.7185 0.2976, 0.6391 0.7185 0.3999, 0.6482 0.6398 0.2582, 0.5977 0.7158 0.2874, 0.6459 0.521 0.2596, 0.58 0.4626 0.2976, 0.6482 0.5413 0.2582, 0.2545 0.4626 0.4855, 0.6391 0.502 0.2635, 0.6282 0.4857 0.2697, 0.5977 0.4653 0.2874, 0.6141 0.4732 0.2779, 0.6141 0.708 0.2779, 0.6282 0.6954 0.2697, 0.6459 0.6602 0.2596, 0.6391 0.6791 0.2635, 0.7072 0.6398 0.3605, 0.7072 0.5413 0.3605, 0.3135 0.4626 0.5878, 0.6391 0.4626 0.3999, 0.7049 0.521 0.3618, 0.6732 0.4732 0.3802, 0.6873 0.4857 0.372, 0.6981 0.502 0.3658, 0.6873 0.6954 0.372, 0.6981 0.6791 0.3658, 0.7049 0.6602 0.3618, 0.6732 0.708 0.3802, 0.6567 0.7158 0.3897, 0.6567 0.4653 0.3897, 0.2661 0.4626 0.6075, 0.2165 0.4626 0.6142, 0.2355 0.4626 0.4934, 0.2165 0.4626 0.4961, -1.6576 0.7185 0.0591, -1.6763 0.7185 0.0346, -1.7598 0.7185 0.1181, -1.5916 0.7185 0.3091, -1.629 0.7185 0.2188, -1.7475 0.7185 0.2316, -1.7598 0.7185 0.122, -2.1535 0.7185 -0.1969, -2.2717 0.7185 -0.1969, -2.1535 0.7185 -0.0197, -2.2717 0.7185 -0.0197, -2.153 0.7185 -0.0153, -2.267 0.7185 0.016, -2.1516 0.7185 -0.0111, -2.2532 0.7185 0.0492, -2.1492 0.7185 -0.0074, -2.2313 0.7185 0.0778, -1.3772 0.7185 0.6018, -1.3645 0.7185 0.4833, -1.4812 0.7185 0.5654, -1.4547 0.7185 0.446, -1.5746 0.7185 0.5068, -1.5322 0.7185 0.3865, -1.6525 0.7185 0.4289, -1.7111 0.7185 0.3356, -1.6417 0.7185 0.122, -1.6417 0.7185 0.1181, -1.6458 0.7185 0.0875, -1.7598 0.7185 -0.0, -2.1339 0.7185 0.1181, -2.1339 0.7185 -0.0, -2.1695 0.7185 0.1134, -2.1382 0.7185 -0.0005, -2.2028 0.7185 0.0996, -2.1424 0.7185 -0.0019, -2.1461 0.7185 -0.0043, -1.7008 0.7185 0.0158, -1.7293 0.7185 0.004, -1.3772 -1.4075 -0.6176, -1.4812 -1.4075 -0.5812, -1.5746 -1.4075 -0.5226, -1.6525 -1.4075 -0.4446, -1.7111 -1.4075 -0.3513, -1.7475 -1.4075 -0.2473, -1.7598 -1.4075 -0.1378, -1.7598 -1.4075 0.122, -1.6417 -1.4075 -0.1378, -1.629 -1.4075 -0.2346, -1.5916 -1.4075 -0.3248, -1.5322 -1.4075 -0.4023, -1.4547 -1.4075 -0.4617, -1.3645 -1.4075 -0.4991, -1.6417 -1.4075 0.122, -1.3772 -0.6201 -0.6176, -1.4812 -0.6201 -0.5812, -1.5746 -0.6201 -0.5226, -1.6525 -0.6201 -0.4446, -1.7111 -0.6201 -0.3513, -1.7475 -0.6201 -0.2473, -1.7598 -0.6201 -0.1378, -1.7479 -1.3681 0.2296, -1.7506 -1.3844 0.2171, -1.7535 -1.3969 0.2008, -1.7562 -1.4048 0.1818, -1.7573 -1.4068 0.1717, -1.7583 -1.4075 0.1614, -1.7456 0.3351 0.2395, -1.7455 0.3248 0.2402, -1.7456 0.3145 0.2395, -1.7456 -0.6885 0.2395, -1.7455 -0.6988 0.2402, -1.7461 -0.6784 0.2375, -1.7461 0.3044 0.2375, -1.7456 -1.3184 0.2395, -1.7455 -1.3287 0.2402, -1.7456 -0.7091 0.2395, -1.7461 -0.7192 0.2375, -1.7461 -1.3084 0.2375, -1.7456 -1.339 0.2395, -1.7461 -1.3491 0.2375, -1.7475 -1.3645 0.2316, -1.7479 -0.7382 0.2296, -1.7506 -0.7545 0.2171, -1.7475 -1.2929 0.2316, -1.7475 -0.7346 0.2316, -1.7573 -1.2507 0.1717, -1.7562 -1.2527 0.1818, -1.7562 -0.7749 0.1818, -1.7535 -0.767 0.2008, -1.7583 -0.7776 0.1614, -1.7598 -0.7776 0.122, -1.7598 -1.25 0.122, -1.7573 -0.7769 0.1717, -1.7583 -1.25 0.1614, -1.7535 -1.2605 0.2008, -1.7506 -1.2731 0.2171, -1.7479 -1.2894 0.2296, -1.7479 0.2854 0.2296, -1.7506 0.2691 0.2171, -1.7475 -0.663 0.2316, -1.7475 0.289 0.2316, -1.7573 -0.6207 0.1717, -1.7562 -0.6228 0.1818, -1.7562 0.2488 0.1818, -1.7535 0.2566 0.2008, -1.7598 -0.6201 0.122, -1.7573 0.2467 0.1717, -1.7583 -0.6201 0.1614, -1.7535 -0.6306 0.2008, -1.7506 -0.6431 0.2171, -1.7479 -0.6594 0.2296, -1.7573 0.4029 0.1717, -1.7562 0.4009 0.1818, -1.7535 0.393 0.2008, -1.7506 0.3805 0.2171, -1.7583 0.4036 0.1614, -1.7598 0.4036 0.122, -1.7479 0.3642 0.2296, -1.7475 0.3606 0.2316, -1.7461 0.3452 0.2375, -1.6417 -0.6201 -0.1378, -1.629 -0.6201 -0.2346, -1.5916 -0.6201 -0.3248, -1.5322 -0.6201 -0.4023, -1.4547 -0.6201 -0.4617, -1.3645 -0.6201 -0.4991, -1.6295 -1.3844 0.2171, -1.629 -1.3821 0.2188, -1.6295 0.3805 0.2171, -1.6334 0.393 0.2008, -1.6369 0.4009 0.1818, -1.6417 0.4036 0.122, -1.6397 0.4036 0.1614, -1.6384 0.4029 0.1717, -1.6235 -1.3491 0.2375, -1.6228 -1.339 0.2395, -1.6245 -1.3589 0.2341, -1.6259 -1.3681 0.2296, -1.6226 -1.3287 0.2402, -1.6228 -1.3184 0.2395, -1.6235 -1.3084 0.2375, -1.6245 -1.2986 0.2342, -1.6259 -1.2894 0.2296, -1.6235 -0.7192 0.2375, -1.6245 -0.729 0.2341, -1.6259 -0.7382 0.2296, -1.6228 -0.7091 0.2395, -1.6226 -0.6988 0.2402, -1.6228 -0.6885 0.2395, -1.6235 -0.6784 0.2375, -1.6235 0.3044 0.2375, -1.6259 -0.6594 0.2296, -1.6245 0.2946 0.2341, -1.6259 0.2854 0.2296, -1.6228 0.3145 0.2395, -1.6245 -0.6687 0.2342, -1.6226 0.3248 0.2402, -1.6228 0.3351 0.2395, -1.6235 0.3452 0.2375, -1.6245 0.355 0.2342, -1.6259 0.3642 0.2296, -1.629 0.3782 0.2188, -1.629 0.2714 0.2188, -1.629 -0.6454 0.2188, -1.6295 0.2691 0.2171, -1.6384 0.2467 0.1717, -1.6369 0.2488 0.1818, -1.6334 0.2566 0.2008, -1.6295 -0.6431 0.2171, -1.6334 -0.6306 0.2008, -1.6369 -0.6228 0.1818, -1.6384 -0.6208 0.1717, -1.6397 -0.6201 0.1614, -1.6417 -0.6201 0.122, -1.629 -0.7522 0.2188, -1.629 -1.2753 0.2188, -1.6295 -0.7545 0.2171, -1.6384 -0.7769 0.1717, -1.6369 -0.7749 0.1818, -1.6334 -0.767 0.2008, -1.6397 -0.7776 0.1614, -1.6295 -1.2731 0.2171, -1.6417 -0.7776 0.122, -1.6334 -1.2605 0.2008, -1.6369 -1.2527 0.1818, -1.6384 -1.2507 0.1717, -1.6397 -1.25 0.1614, -1.6417 -1.25 0.122, -1.6384 -1.4068 0.1717, -1.6369 -1.4048 0.1818, -1.6334 -1.3969 0.2008, -1.6397 -1.4075 0.1614, -1.6417 -0.7776 0.1181, -1.7598 -0.7776 0.1181, -1.6458 -0.7776 0.0875, -1.6576 -0.7776 0.0591, -1.6763 -0.7776 0.0346, -1.7008 -0.7776 0.0158, -2.1535 -0.7776 -0.1969, -2.2717 -0.7776 -0.1969, -2.1535 -0.7776 -0.0197, -2.2717 -0.7776 -0.0197, -2.1529 -0.7776 -0.0146, -2.267 -0.7776 0.016, -2.1509 -0.7776 -0.0098, -2.2532 -0.7776 0.0492, -2.1478 -0.7776 -0.0058, -2.2313 -0.7776 0.0778, -2.1437 -0.7776 -0.0026, -2.2028 -0.7776 0.0996, -2.139 -0.7776 -0.0007, -2.1695 -0.7776 0.1134, -2.1339 -0.7776 -0.0, -2.1339 -0.7776 0.1181, -1.7598 -0.7776 -0.0, -1.7293 -0.7776 0.004, -1.6417 -1.25 0.1181, -1.6458 -1.25 0.0875, -1.7598 -1.25 0.1181, -1.6576 -1.25 0.0591, -1.7293 -1.25 0.004, -1.7008 -1.25 0.0158, -1.6763 -1.25 0.0346, -2.2717 -1.25 -0.1969, -2.1535 -1.25 -0.1969, -2.2717 -1.25 -0.0197, -2.1535 -1.25 -0.0197, -2.267 -1.25 0.016, -2.1529 -1.25 -0.0146, -2.2532 -1.25 0.0492, -2.1509 -1.25 -0.0098, -2.2313 -1.25 0.0778, -2.1478 -1.25 -0.0058, -2.2028 -1.25 0.0996, -2.1437 -1.25 -0.0026, -2.1695 -1.25 0.1134, -2.139 -1.25 -0.0007, -2.1339 -1.25 0.1181, -2.1339 -1.25 -0.0, -1.7598 -1.25 -0.0, -2.2717 -0.8563 -0.2756, -2.2717 -1.1713 -0.2756, -2.2717 -1.2473 -0.2172, -2.2717 -0.8006 -0.2525, -2.2717 -0.7881 -0.2362, -2.2717 -0.7802 -0.2172, -2.2717 -0.8169 -0.265, -2.2717 -0.8359 -0.2729, -2.2717 -1.1916 -0.2729, -2.2717 -1.2106 -0.265, -2.2717 -1.2269 -0.2525, -2.2717 -1.2394 -0.2362, -2.1535 -1.1713 -0.2756, -2.1535 -0.8563 -0.2756, -2.1535 -1.2473 -0.2172, -2.1535 -1.2394 -0.2362, -2.1535 -1.2269 -0.2525, -2.1535 -1.2106 -0.265, -2.1535 -1.1916 -0.2729, -2.1535 -0.8359 -0.2729, -2.1535 -0.8169 -0.265, -2.1535 -0.8006 -0.2525, -2.1535 -0.7881 -0.2362, -2.1535 -0.7802 -0.2172, -1.6417 0.4036 0.1181, -1.6458 0.4036 0.0875, -1.7598 0.4036 0.1181, -1.6576 0.4036 0.0591, -2.2717 0.4036 -0.1969, -2.1535 0.4036 -0.1969, -2.2717 0.4036 -0.0197, -2.1535 0.4036 -0.0197, -2.267 0.4036 0.016, -2.153 0.4036 -0.0153, -2.2532 0.4036 0.0492, -2.1516 0.4036 -0.0111, -2.2313 0.4036 0.0778, -2.1492 0.4036 -0.0074, -2.1461 0.4036 -0.0043, -2.2028 0.4036 0.0996, -2.1424 0.4036 -0.0019, -2.1695 0.4036 0.1134, -2.1382 0.4036 -0.0005, -2.1339 0.4036 0.1181, -2.1339 0.4036 -0.0, -1.7598 0.4036 -0.0, -1.7293 0.4036 0.004, -1.7008 0.4036 0.0158, -1.6763 0.4036 0.0346, -2.1535 0.7158 -0.2172, -2.1535 0.6398 -0.2756, -2.1535 0.4823 -0.2756, -2.1535 0.6602 -0.2729, -2.1535 0.6791 -0.265, -2.1535 0.6954 -0.2525, -2.1535 0.4062 -0.2172, -2.1535 0.4141 -0.2362, -2.1535 0.708 -0.2362, -2.1535 0.4266 -0.2525, -2.1535 0.4429 -0.265, -2.1535 0.4619 -0.2729, -2.2717 0.4823 -0.2756, -2.2717 0.6398 -0.2756, -2.2717 0.4062 -0.2172, -2.2717 0.7158 -0.2172, -2.2717 0.6791 -0.265, -2.2717 0.6602 -0.2729, -2.2717 0.6954 -0.2525, -2.2717 0.708 -0.2362, -2.2717 0.4429 -0.265, -2.2717 0.4266 -0.2525, -2.2717 0.4141 -0.2362, -2.2717 0.4619 -0.2729, -0.2545 0.4626 0.4855, -0.6482 0.5413 0.2582, -0.6482 0.6398 0.2582, -0.5977 0.7158 0.2874, -0.58 0.4626 0.2976, -0.5977 0.4653 0.2874, -0.6141 0.4732 0.2779, -0.6282 0.4857 0.2697, -0.6391 0.502 0.2635, -0.6459 0.521 0.2596, -0.6459 0.6602 0.2596, -0.6391 0.6791 0.2635, -0.6282 0.6954 0.2697, -0.6141 0.708 0.2779, -0.7072 0.5413 0.3605, -0.7072 0.6398 0.3605, -0.6567 0.4653 0.3897, -0.6391 0.4626 0.3999, -0.6981 0.6791 0.3658, -0.7049 0.6602 0.3618, -0.6873 0.6954 0.372, -0.6732 0.708 0.3802, -0.6981 0.502 0.3658, -0.6873 0.4857 0.372, -0.6732 0.4732 0.3802, -0.3135 0.4626 0.5878, -0.6567 0.7158 0.3897, -0.7049 0.521 0.3618, -0.2165 0.4626 0.6142, -0.2661 0.4626 0.6075, -0.2355 0.4626 0.4934, -0.2165 0.4626 0.4961
            ]
        }
        coordIndex [
            0,1,2,-1,2,1,3,-1,2,3,4,-1,4,3,5,-1,4,5,6,-1,6,5,7,-1,6,7,8,-1,8,7,9,-1,10,11,12,-1,12,11,13,-1,12,13,14,-1,14,13,15,-1,14,15,16,-1,16,15,17,-1,16,17,18,-1,18,17,19,-1,18,19,9,-1,9,19,20,-1,9,20,8,-1,21,22,23,-1,24,25,26,-1,27,28,29,-1,30,31,32,-1,32,31,33,-1,32,33,34,-1,24,26,35,-1,35,26,36,-1,35,36,34,-1,37,38,39,-1,39,38,40,-1,39,40,41,-1,40,42,41,-1,41,42,43,-1,41,43,28,-1,28,43,44,-1,28,44,29,-1,45,46,37,-1,37,46,47,-1,37,47,38,-1,25,48,26,-1,26,48,49,-1,26,49,50,-1,51,52,26,-1,26,52,53,-1,54,55,56,-1,56,55,57,-1,53,58,26,-1,26,58,57,-1,26,57,59,-1,59,57,55,-1,60,61,62,-1,62,61,63,-1,50,64,26,-1,26,64,65,-1,26,65,51,-1,66,67,68,-1,69,70,71,-1,71,70,72,-1,71,72,73,-1,34,36,32,-1,32,36,74,-1,32,74,28,-1,28,74,75,-1,28,75,76,-1,29,77,27,-1,27,77,66,-1,27,66,78,-1,78,66,68,-1,60,79,61,-1,61,79,80,-1,61,80,81,-1,73,82,71,-1,71,82,83,-1,71,83,37,-1,37,83,84,-1,37,84,45,-1,61,41,63,-1,63,41,28,-1,63,28,85,-1,85,28,76,-1,80,86,81,-1,81,86,87,-1,81,87,71,-1,71,87,88,-1,71,88,69,-1,89,90,91,-1,91,90,92,-1,91,92,93,-1,89,91,94,-1,94,91,95,-1,94,95,96,-1,93,97,91,-1,91,97,98,-1,91,98,32,-1,99,100,83,-1,98,101,32,-1,32,101,102,-1,32,102,30,-1,30,102,99,-1,30,99,103,-1,103,99,83,-1,100,104,83,-1,83,104,105,-1,83,105,84,-1,84,105,106,-1,84,106,107,-1,32,108,109,-1,110,111,112,-1,112,111,113,-1,112,113,32,-1,32,113,114,-1,32,114,108,-1,115,116,91,-1,116,117,91,-1,91,117,118,-1,91,118,23,-1,23,118,119,-1,23,119,21,-1,109,120,32,-1,32,120,121,-1,32,121,91,-1,91,121,122,-1,91,122,115,-1,123,0,124,-1,125,126,127,-1,127,126,128,-1,127,128,129,-1,130,131,132,-1,133,134,132,-1,132,134,135,-1,136,137,138,-1,139,140,28,-1,28,140,141,-1,28,141,142,-1,143,144,145,-1,146,147,148,-1,124,0,149,-1,150,151,142,-1,142,151,152,-1,153,154,155,-1,129,139,127,-1,127,139,28,-1,127,28,135,-1,135,28,145,-1,135,145,132,-1,132,145,144,-1,132,144,130,-1,131,156,132,-1,132,156,157,-1,132,157,124,-1,124,157,158,-1,124,158,123,-1,159,160,152,-1,152,160,161,-1,152,161,142,-1,142,161,162,-1,142,162,28,-1,28,162,163,-1,28,163,32,-1,146,148,164,-1,143,145,155,-1,155,145,165,-1,155,165,153,-1,138,151,136,-1,136,151,150,-1,136,150,166,-1,166,150,32,-1,166,32,167,-1,167,32,163,-1,147,168,148,-1,148,168,169,-1,148,169,170,-1,170,171,148,-1,148,171,172,-1,148,172,127,-1,127,172,173,-1,127,173,125,-1,0,2,149,-1,149,2,112,-1,149,112,148,-1,148,112,32,-1,148,32,164,-1,164,32,150,-1,174,175,176,-1,176,175,177,-1,178,179,180,-1,180,179,181,-1,180,181,182,-1,182,181,183,-1,182,183,184,-1,184,183,185,-1,184,185,186,-1,187,188,189,-1,189,188,190,-1,189,190,191,-1,191,190,192,-1,191,192,193,-1,193,192,194,-1,193,194,195,-1,196,197,198,-1,198,197,199,-1,198,199,200,-1,200,199,201,-1,200,201,202,-1,202,201,203,-1,202,203,187,-1,187,203,204,-1,187,204,188,-1,195,194,205,-1,205,194,206,-1,205,206,207,-1,185,208,186,-1,186,208,209,-1,186,209,210,-1,210,209,211,-1,210,211,212,-1,212,211,213,-1,212,213,214,-1,214,213,215,-1,214,215,206,-1,206,215,216,-1,206,216,217,-1,217,218,206,-1,206,218,219,-1,206,219,207,-1,220,221,222,-1,220,222,223,-1,223,222,224,-1,223,224,225,-1,225,224,226,-1,225,226,227,-1,227,226,228,-1,227,228,229,-1,229,228,230,-1,229,230,231,-1,231,230,232,-1,231,232,233,-1,233,232,23,-1,233,23,22,-1,234,221,235,-1,235,221,220,-1,236,237,238,-1,238,237,239,-1,238,239,240,-1,240,239,241,-1,240,241,242,-1,242,241,243,-1,242,243,244,-1,244,243,245,-1,244,245,246,-1,246,245,247,-1,246,247,248,-1,248,247,249,-1,248,249,250,-1,250,249,251,-1,15,252,253,-1,254,110,112,-1,15,253,17,-1,17,253,255,-1,17,255,19,-1,19,255,256,-1,19,256,20,-1,20,256,257,-1,20,257,8,-1,8,257,258,-1,8,258,6,-1,6,258,254,-1,6,254,4,-1,4,254,112,-1,4,112,2,-1,259,260,261,-1,262,263,264,-1,264,263,265,-1,264,265,266,-1,267,268,262,-1,262,268,269,-1,262,269,263,-1,263,269,270,-1,263,270,271,-1,272,273,274,-1,274,273,275,-1,274,275,276,-1,277,278,279,-1,197,280,199,-1,199,280,281,-1,199,281,277,-1,277,281,282,-1,277,282,278,-1,283,284,285,-1,285,284,286,-1,285,286,261,-1,261,286,287,-1,261,287,259,-1,288,289,270,-1,270,289,290,-1,270,290,271,-1,288,291,289,-1,289,291,292,-1,289,292,174,-1,279,293,277,-1,277,293,294,-1,277,294,272,-1,277,295,285,-1,285,295,296,-1,296,297,285,-1,285,297,298,-1,285,298,283,-1,276,299,274,-1,274,299,300,-1,274,300,175,-1,274,301,272,-1,272,301,302,-1,272,302,277,-1,277,302,303,-1,277,303,295,-1,174,292,175,-1,175,292,304,-1,175,304,274,-1,305,306,192,-1,192,306,307,-1,307,308,192,-1,192,308,309,-1,192,309,194,-1,194,309,310,-1,194,310,311,-1,312,313,314,-1,315,316,190,-1,314,317,312,-1,312,317,318,-1,312,318,315,-1,316,319,190,-1,190,319,320,-1,190,320,192,-1,192,320,321,-1,192,321,305,-1,322,323,324,-1,324,323,325,-1,324,325,326,-1,325,327,326,-1,326,327,328,-1,326,328,329,-1,329,328,330,-1,331,13,332,-1,332,13,11,-1,332,11,330,-1,330,11,333,-1,330,333,329,-1,317,334,318,-1,318,334,335,-1,318,335,336,-1,336,335,322,-1,336,322,337,-1,337,322,324,-1,338,339,340,-1,340,339,341,-1,340,341,342,-1,341,343,342,-1,342,343,344,-1,342,344,345,-1,345,344,346,-1,347,348,349,-1,349,348,350,-1,349,350,346,-1,346,350,351,-1,346,351,345,-1,352,353,312,-1,312,353,354,-1,312,354,313,-1,313,354,355,-1,313,355,356,-1,356,355,338,-1,356,338,357,-1,357,338,340,-1,358,359,360,-1,360,359,361,-1,360,361,362,-1,358,360,363,-1,363,360,234,-1,363,234,235,-1,362,364,360,-1,360,364,365,-1,360,365,312,-1,312,365,366,-1,312,366,352,-1,315,190,312,-1,312,190,188,-1,312,188,367,-1,367,188,204,-1,367,204,368,-1,368,204,203,-1,368,203,369,-1,369,203,201,-1,369,201,370,-1,370,201,199,-1,370,199,277,-1,331,252,13,-1,13,252,15,-1,371,372,373,-1,373,372,374,-1,373,374,375,-1,375,374,376,-1,375,376,377,-1,378,379,380,-1,380,379,381,-1,380,381,382,-1,382,381,383,-1,382,383,384,-1,384,383,385,-1,384,385,386,-1,386,385,387,-1,386,387,388,-1,388,387,389,-1,388,389,390,-1,390,389,391,-1,390,391,392,-1,392,391,393,-1,392,393,371,-1,371,393,394,-1,371,394,372,-1,243,226,245,-1,245,226,224,-1,245,224,247,-1,247,224,222,-1,247,222,249,-1,249,222,221,-1,249,221,251,-1,251,221,234,-1,251,234,395,-1,395,234,360,-1,395,360,396,-1,376,95,377,-1,377,95,91,-1,377,91,237,-1,237,91,23,-1,237,23,239,-1,239,23,232,-1,239,232,241,-1,241,232,230,-1,241,230,243,-1,243,230,228,-1,243,228,226,-1,360,312,396,-1,396,312,367,-1,396,367,397,-1,397,367,368,-1,397,368,398,-1,398,368,369,-1,398,369,399,-1,399,369,370,-1,399,370,400,-1,400,370,277,-1,400,277,401,-1,401,277,285,-1,401,285,402,-1,402,285,403,-1,402,403,378,-1,378,403,404,-1,378,404,379,-1,3,405,5,-1,5,405,406,-1,5,406,7,-1,7,406,407,-1,7,407,9,-1,9,407,408,-1,9,408,18,-1,18,408,409,-1,18,409,16,-1,16,409,410,-1,16,410,14,-1,14,410,411,-1,412,413,414,-1,415,416,417,-1,417,416,418,-1,417,418,419,-1,420,377,421,-1,421,377,422,-1,423,237,424,-1,424,237,236,-1,422,377,425,-1,425,377,237,-1,425,237,418,-1,418,237,423,-1,418,423,419,-1,426,427,414,-1,428,429,430,-1,430,429,414,-1,430,414,431,-1,431,414,413,-1,431,413,432,-1,432,413,433,-1,417,434,415,-1,415,434,435,-1,415,435,436,-1,427,437,414,-1,414,437,438,-1,414,438,412,-1,414,439,426,-1,426,439,440,-1,426,440,441,-1,441,440,442,-1,441,442,443,-1,433,413,436,-1,436,413,444,-1,436,444,415,-1,405,3,445,-1,445,3,1,-1,445,1,446,-1,446,1,447,-1,446,447,428,-1,428,447,448,-1,428,448,429,-1,449,443,450,-1,450,443,451,-1,452,453,454,-1,427,455,437,-1,437,455,456,-1,437,456,457,-1,457,456,458,-1,457,458,459,-1,459,458,452,-1,459,452,460,-1,460,452,454,-1,450,461,462,-1,443,442,451,-1,451,442,463,-1,451,463,464,-1,462,465,450,-1,450,465,466,-1,450,466,449,-1,467,468,464,-1,464,468,469,-1,464,469,451,-1,470,196,198,-1,471,472,473,-1,474,475,401,-1,476,477,478,-1,478,477,479,-1,478,479,401,-1,401,479,480,-1,401,480,474,-1,481,482,483,-1,483,482,484,-1,483,484,485,-1,486,487,488,-1,488,487,489,-1,490,491,400,-1,400,491,492,-1,400,492,198,-1,198,492,493,-1,198,493,470,-1,471,473,494,-1,494,473,487,-1,494,487,495,-1,495,487,486,-1,495,486,496,-1,401,497,400,-1,400,497,498,-1,498,499,400,-1,400,499,500,-1,400,500,490,-1,501,502,176,-1,176,502,503,-1,496,504,495,-1,495,504,503,-1,495,503,505,-1,505,503,502,-1,475,506,401,-1,401,506,507,-1,401,507,481,-1,483,508,481,-1,481,508,509,-1,481,509,401,-1,401,509,510,-1,401,510,497,-1,485,511,483,-1,483,511,512,-1,483,512,513,-1,501,176,513,-1,513,176,177,-1,513,177,483,-1,514,515,191,-1,251,516,517,-1,517,518,251,-1,251,518,519,-1,251,519,250,-1,520,521,189,-1,191,515,189,-1,189,515,522,-1,189,522,520,-1,521,523,189,-1,189,523,524,-1,189,524,525,-1,526,525,527,-1,527,528,526,-1,526,528,529,-1,526,529,530,-1,530,529,531,-1,530,531,532,-1,533,534,189,-1,533,189,535,-1,525,526,189,-1,189,526,536,-1,189,536,535,-1,534,537,538,-1,538,537,539,-1,539,540,538,-1,538,540,541,-1,538,541,542,-1,542,541,543,-1,542,543,544,-1,545,546,189,-1,534,538,189,-1,189,538,547,-1,189,547,545,-1,548,396,549,-1,549,396,550,-1,548,551,396,-1,396,551,552,-1,396,552,395,-1,395,552,553,-1,395,553,251,-1,251,553,554,-1,251,554,516,-1,555,556,543,-1,543,556,557,-1,543,557,544,-1,555,543,558,-1,558,543,559,-1,558,559,560,-1,560,559,561,-1,560,561,562,-1,562,563,560,-1,560,563,564,-1,560,564,565,-1,566,567,531,-1,531,567,568,-1,531,568,532,-1,566,531,569,-1,569,531,570,-1,569,570,571,-1,571,570,572,-1,571,572,573,-1,573,574,571,-1,571,574,10,-1,571,10,12,-1,575,576,191,-1,191,576,577,-1,191,577,514,-1,193,578,191,-1,191,578,579,-1,191,579,575,-1,546,550,189,-1,189,550,396,-1,189,396,187,-1,187,396,397,-1,187,397,202,-1,202,397,398,-1,202,398,200,-1,200,398,399,-1,200,399,198,-1,198,399,400,-1,14,411,12,-1,12,411,571,-1,433,436,121,-1,121,436,122,-1,244,227,242,-1,242,227,229,-1,242,229,240,-1,240,229,231,-1,240,231,238,-1,238,231,233,-1,238,233,236,-1,236,233,22,-1,236,22,424,-1,424,22,21,-1,519,363,250,-1,250,363,235,-1,250,235,248,-1,248,235,220,-1,248,220,246,-1,246,220,223,-1,246,223,244,-1,244,223,225,-1,244,225,227,-1,407,257,408,-1,408,257,256,-1,408,256,409,-1,409,256,255,-1,409,255,410,-1,410,255,253,-1,410,253,411,-1,411,253,252,-1,411,252,571,-1,571,252,331,-1,571,331,569,-1,569,331,332,-1,445,111,405,-1,405,111,110,-1,405,110,406,-1,406,110,254,-1,406,254,407,-1,407,254,258,-1,407,258,257,-1,564,350,565,-1,565,350,348,-1,565,348,580,-1,580,348,581,-1,581,348,582,-1,581,582,583,-1,584,585,582,-1,582,585,586,-1,582,586,583,-1,587,588,589,-1,589,588,590,-1,589,590,591,-1,591,590,592,-1,591,592,593,-1,593,592,594,-1,593,594,595,-1,595,594,596,-1,595,596,597,-1,597,596,598,-1,597,598,599,-1,599,598,600,-1,599,600,601,-1,601,600,602,-1,601,602,582,-1,582,602,603,-1,582,603,584,-1,347,349,558,-1,558,560,347,-1,347,560,604,-1,347,604,605,-1,605,604,606,-1,606,607,605,-1,605,607,608,-1,605,608,609,-1,610,611,612,-1,612,611,613,-1,612,613,614,-1,614,613,615,-1,614,615,616,-1,616,615,617,-1,616,617,618,-1,618,617,619,-1,618,619,620,-1,620,619,621,-1,620,621,622,-1,622,621,623,-1,622,623,624,-1,624,623,625,-1,624,625,626,-1,626,625,605,-1,626,605,627,-1,627,605,609,-1,628,587,629,-1,629,587,589,-1,629,589,630,-1,630,589,613,-1,631,632,633,-1,628,629,633,-1,633,629,634,-1,633,634,631,-1,613,611,630,-1,630,611,635,-1,630,635,636,-1,636,637,630,-1,630,637,638,-1,630,638,639,-1,629,630,640,-1,640,630,641,-1,642,610,641,-1,641,610,612,-1,641,612,640,-1,640,612,590,-1,640,590,588,-1,643,644,645,-1,588,646,640,-1,640,646,643,-1,640,643,647,-1,647,643,645,-1,648,649,650,-1,648,650,641,-1,641,650,651,-1,641,651,642,-1,590,612,592,-1,592,612,614,-1,592,614,594,-1,594,614,616,-1,594,616,596,-1,596,616,618,-1,596,618,598,-1,598,618,620,-1,598,620,600,-1,600,620,622,-1,600,622,602,-1,602,622,624,-1,603,602,626,-1,626,602,624,-1,603,626,627,-1,603,627,584,-1,584,627,609,-1,584,609,585,-1,585,609,608,-1,585,608,586,-1,586,608,607,-1,586,607,583,-1,583,607,606,-1,583,606,581,-1,581,606,604,-1,581,604,580,-1,565,580,560,-1,560,580,604,-1,582,348,605,-1,605,348,347,-1,601,582,625,-1,625,582,605,-1,601,625,623,-1,601,623,599,-1,599,623,621,-1,599,621,597,-1,597,621,619,-1,597,619,595,-1,595,619,617,-1,595,617,593,-1,593,617,615,-1,593,615,591,-1,591,615,613,-1,591,613,589,-1,652,653,654,-1,654,653,655,-1,654,655,656,-1,656,655,657,-1,656,657,658,-1,658,657,659,-1,658,659,660,-1,660,659,661,-1,660,661,662,-1,662,661,663,-1,662,663,664,-1,664,663,665,-1,452,46,453,-1,453,46,45,-1,453,45,666,-1,666,45,667,-1,666,667,665,-1,665,667,668,-1,665,668,664,-1,669,670,671,-1,311,310,579,-1,672,673,674,-1,674,673,675,-1,674,675,676,-1,676,675,677,-1,676,677,678,-1,678,677,679,-1,678,679,680,-1,680,679,681,-1,579,578,311,-1,311,578,682,-1,311,682,671,-1,671,682,683,-1,671,683,669,-1,671,684,685,-1,685,684,686,-1,685,686,687,-1,687,686,688,-1,687,688,689,-1,689,688,690,-1,689,690,681,-1,681,690,691,-1,681,691,680,-1,670,692,671,-1,671,692,693,-1,671,693,684,-1,311,671,194,-1,194,671,206,-1,682,578,195,-1,195,578,193,-1,682,195,205,-1,682,205,683,-1,683,205,207,-1,683,207,669,-1,669,207,219,-1,669,219,670,-1,670,219,218,-1,670,218,692,-1,692,218,217,-1,692,217,693,-1,693,217,216,-1,693,216,684,-1,686,684,215,-1,215,684,216,-1,686,215,688,-1,688,215,213,-1,688,213,690,-1,690,213,211,-1,690,211,691,-1,691,211,209,-1,691,209,680,-1,680,209,208,-1,680,208,678,-1,678,208,185,-1,678,185,676,-1,676,185,183,-1,676,183,674,-1,674,183,181,-1,181,694,674,-1,674,694,695,-1,181,179,694,-1,694,179,696,-1,694,696,697,-1,697,698,694,-1,694,698,699,-1,694,699,700,-1,701,702,703,-1,703,704,701,-1,701,704,705,-1,701,705,695,-1,695,705,672,-1,695,672,674,-1,706,707,694,-1,694,707,695,-1,706,180,707,-1,707,180,675,-1,708,709,710,-1,711,712,706,-1,706,712,178,-1,706,178,180,-1,711,713,712,-1,712,713,714,-1,712,714,715,-1,675,673,707,-1,707,673,716,-1,707,716,710,-1,710,716,717,-1,710,717,708,-1,675,180,182,-1,675,182,677,-1,677,182,184,-1,677,184,679,-1,679,184,186,-1,679,186,681,-1,681,186,210,-1,681,210,689,-1,689,210,212,-1,689,212,687,-1,687,212,214,-1,687,214,685,-1,671,685,206,-1,206,685,214,-1,316,524,319,-1,319,524,523,-1,319,523,320,-1,523,521,320,-1,320,521,520,-1,320,520,321,-1,321,520,522,-1,321,522,305,-1,305,522,515,-1,305,515,306,-1,515,514,306,-1,306,514,577,-1,306,577,307,-1,307,577,576,-1,307,576,308,-1,308,576,575,-1,308,575,309,-1,309,575,579,-1,309,579,310,-1,11,10,333,-1,333,10,574,-1,333,574,329,-1,574,573,329,-1,329,573,572,-1,329,572,326,-1,326,572,570,-1,326,570,324,-1,324,570,531,-1,324,531,337,-1,337,531,529,-1,337,529,336,-1,336,529,528,-1,336,528,318,-1,318,528,527,-1,318,527,315,-1,315,527,525,-1,315,525,316,-1,316,525,524,-1,179,178,712,-1,179,712,696,-1,696,712,715,-1,696,715,697,-1,697,715,714,-1,697,714,698,-1,698,714,713,-1,698,713,699,-1,699,713,711,-1,699,711,700,-1,700,711,706,-1,700,706,694,-1,673,672,705,-1,673,705,716,-1,716,705,704,-1,716,704,717,-1,717,704,703,-1,717,703,708,-1,708,703,702,-1,708,702,709,-1,709,702,701,-1,709,701,710,-1,710,701,695,-1,710,695,707,-1,588,587,628,-1,588,628,646,-1,646,628,633,-1,646,633,643,-1,643,633,632,-1,643,632,644,-1,644,632,631,-1,644,631,645,-1,645,631,634,-1,645,634,647,-1,647,634,629,-1,647,629,640,-1,611,610,642,-1,611,642,635,-1,635,642,651,-1,635,651,636,-1,636,651,650,-1,636,650,637,-1,637,650,649,-1,637,649,638,-1,638,649,648,-1,638,648,639,-1,639,648,641,-1,639,641,630,-1,350,564,351,-1,351,564,563,-1,351,563,345,-1,563,562,345,-1,345,562,561,-1,345,561,342,-1,342,561,559,-1,342,559,340,-1,340,559,543,-1,340,543,357,-1,357,543,541,-1,357,541,356,-1,356,541,540,-1,356,540,313,-1,313,540,539,-1,313,539,314,-1,314,539,537,-1,314,537,317,-1,317,537,534,-1,317,534,334,-1,334,534,533,-1,334,533,335,-1,533,535,335,-1,335,535,536,-1,335,536,322,-1,322,536,526,-1,322,526,323,-1,323,526,530,-1,323,530,325,-1,530,532,325,-1,325,532,568,-1,325,568,327,-1,327,568,567,-1,327,567,328,-1,328,567,566,-1,328,566,330,-1,330,566,569,-1,330,569,332,-1,359,516,361,-1,361,516,554,-1,361,554,362,-1,362,554,553,-1,362,553,364,-1,364,553,552,-1,364,552,365,-1,365,552,551,-1,365,551,366,-1,366,551,548,-1,366,548,352,-1,352,548,549,-1,352,549,353,-1,353,549,550,-1,363,519,358,-1,358,519,518,-1,358,518,359,-1,359,518,517,-1,359,517,516,-1,341,557,343,-1,343,557,556,-1,343,556,344,-1,344,556,555,-1,344,555,346,-1,346,555,558,-1,346,558,349,-1,355,547,338,-1,338,547,538,-1,338,538,339,-1,339,538,542,-1,339,542,341,-1,341,542,544,-1,341,544,557,-1,353,550,354,-1,354,550,546,-1,354,546,355,-1,355,546,545,-1,355,545,547,-1,111,445,113,-1,113,445,446,-1,113,446,114,-1,114,446,428,-1,114,428,108,-1,108,428,430,-1,108,430,109,-1,109,430,431,-1,109,431,120,-1,120,431,432,-1,120,432,121,-1,121,432,433,-1,424,21,423,-1,423,21,119,-1,423,119,419,-1,419,119,118,-1,419,118,417,-1,417,118,117,-1,417,117,434,-1,434,117,116,-1,434,116,435,-1,435,116,115,-1,435,115,436,-1,436,115,122,-1,280,197,470,-1,470,197,196,-1,272,294,498,-1,498,294,499,-1,718,719,720,-1,720,719,721,-1,720,721,722,-1,722,721,723,-1,722,723,473,-1,473,723,262,-1,473,262,487,-1,487,262,264,-1,487,264,724,-1,724,264,725,-1,724,725,726,-1,726,725,727,-1,726,727,728,-1,728,727,729,-1,730,728,731,-1,732,733,734,-1,734,733,735,-1,734,735,730,-1,730,735,726,-1,730,726,728,-1,732,736,733,-1,733,736,737,-1,733,737,738,-1,738,737,739,-1,731,740,730,-1,730,740,741,-1,730,741,742,-1,742,741,743,-1,744,745,730,-1,730,745,734,-1,729,727,744,-1,727,746,744,-1,744,746,747,-1,744,747,745,-1,745,747,748,-1,749,750,751,-1,752,744,753,-1,753,744,754,-1,752,755,744,-1,744,755,756,-1,744,756,729,-1,748,747,751,-1,751,747,757,-1,751,757,749,-1,727,725,746,-1,746,725,758,-1,758,725,759,-1,759,725,264,-1,759,264,266,-1,726,735,724,-1,724,735,760,-1,724,760,487,-1,487,760,761,-1,487,761,489,-1,733,747,735,-1,735,747,746,-1,735,746,760,-1,760,746,758,-1,760,758,761,-1,761,758,759,-1,744,730,742,-1,744,742,754,-1,754,742,743,-1,754,743,753,-1,753,743,741,-1,753,741,752,-1,752,741,740,-1,752,740,755,-1,755,740,731,-1,755,731,756,-1,756,731,728,-1,756,728,729,-1,734,745,748,-1,734,748,732,-1,732,748,751,-1,732,751,736,-1,736,751,750,-1,736,750,737,-1,737,750,749,-1,737,749,739,-1,739,749,757,-1,739,757,738,-1,738,757,747,-1,738,747,733,-1,761,759,489,-1,489,759,266,-1,489,266,488,-1,488,266,265,-1,488,265,486,-1,486,265,263,-1,486,263,496,-1,496,263,271,-1,496,271,504,-1,504,271,290,-1,504,290,503,-1,503,290,289,-1,503,289,176,-1,176,289,174,-1,177,175,483,-1,483,175,300,-1,483,300,508,-1,508,300,299,-1,508,299,509,-1,509,299,276,-1,509,276,510,-1,510,276,275,-1,510,275,497,-1,497,275,273,-1,497,273,498,-1,498,273,272,-1,280,470,281,-1,281,470,493,-1,281,493,282,-1,282,493,492,-1,282,492,278,-1,278,492,491,-1,278,491,279,-1,279,491,490,-1,279,490,293,-1,293,490,500,-1,293,500,294,-1,294,500,499,-1,304,292,513,-1,513,292,501,-1,762,763,764,-1,765,766,767,-1,767,766,768,-1,769,770,771,-1,771,770,772,-1,771,772,773,-1,773,772,774,-1,773,774,775,-1,775,774,776,-1,775,776,777,-1,777,776,778,-1,260,476,261,-1,261,476,478,-1,261,478,779,-1,779,478,780,-1,779,780,781,-1,781,780,782,-1,781,782,783,-1,783,782,784,-1,783,784,785,-1,785,784,765,-1,785,765,786,-1,786,765,767,-1,766,787,768,-1,768,787,788,-1,768,788,764,-1,764,788,789,-1,764,789,762,-1,764,790,791,-1,791,790,792,-1,791,792,793,-1,793,792,794,-1,793,794,795,-1,795,794,796,-1,795,796,778,-1,778,796,797,-1,778,797,777,-1,763,798,764,-1,764,798,799,-1,764,799,790,-1,96,95,376,-1,96,376,800,-1,800,376,374,-1,800,374,801,-1,801,374,372,-1,801,372,802,-1,802,372,394,-1,802,394,803,-1,803,394,393,-1,803,393,804,-1,804,393,391,-1,804,391,805,-1,805,391,389,-1,805,389,806,-1,389,387,806,-1,806,387,807,-1,808,388,809,-1,809,388,390,-1,809,390,810,-1,810,390,392,-1,810,392,811,-1,811,392,371,-1,811,371,812,-1,812,371,373,-1,812,373,813,-1,813,373,375,-1,813,375,420,-1,420,375,377,-1,388,808,386,-1,386,808,814,-1,84,107,815,-1,84,815,45,-1,45,815,667,-1,667,815,816,-1,667,816,668,-1,668,816,817,-1,668,817,664,-1,664,817,818,-1,664,818,662,-1,662,818,819,-1,662,819,660,-1,660,819,820,-1,660,820,658,-1,658,820,821,-1,658,821,656,-1,822,823,385,-1,385,823,824,-1,824,825,385,-1,385,825,826,-1,385,826,387,-1,387,826,827,-1,387,827,807,-1,828,829,786,-1,786,829,830,-1,831,832,383,-1,833,831,834,-1,834,831,383,-1,834,383,830,-1,835,836,383,-1,832,837,383,-1,383,837,838,-1,383,838,835,-1,835,838,839,-1,836,840,383,-1,383,840,841,-1,383,841,385,-1,385,841,842,-1,385,842,822,-1,843,844,845,-1,839,838,845,-1,845,838,846,-1,845,846,843,-1,847,848,849,-1,849,848,850,-1,851,852,853,-1,849,854,847,-1,847,854,851,-1,847,851,855,-1,855,851,853,-1,848,856,850,-1,850,856,857,-1,850,857,844,-1,844,857,858,-1,844,858,845,-1,859,860,861,-1,833,834,861,-1,861,834,862,-1,861,862,859,-1,863,864,865,-1,865,864,866,-1,652,654,867,-1,865,868,863,-1,863,868,652,-1,863,652,869,-1,869,652,867,-1,864,870,866,-1,866,870,871,-1,866,871,860,-1,860,871,872,-1,860,872,861,-1,873,874,767,-1,767,874,875,-1,767,875,876,-1,873,767,877,-1,877,767,768,-1,877,768,878,-1,876,879,767,-1,767,879,880,-1,767,880,786,-1,786,880,881,-1,786,881,828,-1,830,383,786,-1,786,383,381,-1,786,381,785,-1,785,381,379,-1,785,379,783,-1,783,379,404,-1,783,404,781,-1,781,404,403,-1,781,403,779,-1,779,403,285,-1,779,285,261,-1,821,867,656,-1,656,867,654,-1,657,882,659,-1,659,882,883,-1,659,883,661,-1,661,883,884,-1,661,884,663,-1,663,884,885,-1,663,885,665,-1,665,885,886,-1,665,886,666,-1,666,886,887,-1,666,887,453,-1,453,887,454,-1,888,889,384,-1,890,891,766,-1,766,891,892,-1,893,787,894,-1,894,787,766,-1,894,766,895,-1,895,766,892,-1,896,897,382,-1,896,382,898,-1,384,889,382,-1,382,889,899,-1,382,899,898,-1,900,901,765,-1,901,902,765,-1,765,902,903,-1,765,903,904,-1,905,904,906,-1,906,904,907,-1,905,908,904,-1,904,908,909,-1,904,909,765,-1,765,909,910,-1,765,910,911,-1,912,913,914,-1,914,913,915,-1,912,916,913,-1,913,916,765,-1,913,765,917,-1,917,765,911,-1,916,918,765,-1,765,918,919,-1,765,919,920,-1,920,921,765,-1,765,921,922,-1,765,922,766,-1,766,922,923,-1,766,923,890,-1,915,913,924,-1,924,913,925,-1,924,925,926,-1,927,928,925,-1,925,928,929,-1,925,929,926,-1,927,925,653,-1,653,925,930,-1,653,930,655,-1,655,930,931,-1,655,931,932,-1,932,933,655,-1,655,933,934,-1,655,934,935,-1,907,904,936,-1,936,904,937,-1,936,937,938,-1,939,940,937,-1,937,940,941,-1,937,941,938,-1,939,937,942,-1,942,937,943,-1,942,943,944,-1,944,943,945,-1,944,945,946,-1,946,947,944,-1,944,947,948,-1,944,948,949,-1,950,951,384,-1,384,951,952,-1,384,952,888,-1,386,814,384,-1,384,814,953,-1,384,953,950,-1,478,401,780,-1,780,401,402,-1,780,402,782,-1,782,402,378,-1,782,378,784,-1,784,378,380,-1,784,380,765,-1,765,380,382,-1,765,382,900,-1,900,382,897,-1,882,657,935,-1,935,657,655,-1,444,413,98,-1,98,413,101,-1,827,953,807,-1,807,953,814,-1,807,814,806,-1,806,814,808,-1,806,808,805,-1,805,808,809,-1,805,809,804,-1,804,809,810,-1,804,810,803,-1,803,810,811,-1,421,94,420,-1,420,94,96,-1,420,96,813,-1,813,96,800,-1,813,800,812,-1,812,800,801,-1,812,801,811,-1,811,801,802,-1,811,802,803,-1,934,869,935,-1,935,869,867,-1,935,867,882,-1,882,867,821,-1,882,821,883,-1,883,821,820,-1,883,820,884,-1,884,820,819,-1,884,819,885,-1,819,818,885,-1,885,818,817,-1,885,817,886,-1,886,817,816,-1,886,816,887,-1,887,816,815,-1,887,815,454,-1,454,815,107,-1,454,107,460,-1,460,107,106,-1,852,851,942,-1,942,944,852,-1,852,944,954,-1,852,954,955,-1,955,954,956,-1,956,957,955,-1,955,957,958,-1,955,958,959,-1,960,961,962,-1,962,961,963,-1,962,963,964,-1,964,963,965,-1,964,965,966,-1,966,965,967,-1,966,967,968,-1,968,967,969,-1,968,969,970,-1,970,969,971,-1,970,971,972,-1,972,971,973,-1,972,973,974,-1,974,973,975,-1,974,975,976,-1,976,975,955,-1,976,955,977,-1,977,955,959,-1,948,855,949,-1,949,855,853,-1,949,853,978,-1,978,853,979,-1,979,853,980,-1,979,980,981,-1,982,983,980,-1,980,983,984,-1,980,984,981,-1,985,986,987,-1,987,986,988,-1,987,988,989,-1,989,988,990,-1,989,990,991,-1,991,990,992,-1,991,992,993,-1,993,992,994,-1,993,994,995,-1,995,994,996,-1,995,996,997,-1,997,996,998,-1,997,998,999,-1,999,998,1000,-1,999,1000,980,-1,980,1000,1001,-1,980,1001,982,-1,987,963,985,-1,985,963,961,-1,961,1002,985,-1,985,1002,1003,-1,985,1003,1004,-1,1005,961,1006,-1,1006,961,1007,-1,1005,1008,961,-1,961,1008,1009,-1,961,1009,1002,-1,1010,1011,1012,-1,1010,1012,1003,-1,1003,1012,1013,-1,1003,1013,1004,-1,1003,1002,1014,-1,1014,1002,1015,-1,962,988,960,-1,960,988,1014,-1,988,986,1014,-1,1014,986,1016,-1,1014,1016,1017,-1,1017,1018,1014,-1,1014,1018,1019,-1,1014,1019,1020,-1,1014,1015,960,-1,960,1015,1021,-1,960,1021,1022,-1,1022,1023,960,-1,960,1023,1024,-1,960,1024,1025,-1,974,1000,972,-1,972,1000,998,-1,972,998,970,-1,970,998,996,-1,970,996,968,-1,968,996,994,-1,968,994,966,-1,966,994,992,-1,966,992,964,-1,964,992,990,-1,964,990,962,-1,962,990,988,-1,974,976,1000,-1,1000,976,1001,-1,954,978,979,-1,954,979,956,-1,956,979,981,-1,956,981,957,-1,957,981,984,-1,957,984,958,-1,958,984,983,-1,958,983,959,-1,959,983,982,-1,959,982,977,-1,977,982,1001,-1,977,1001,976,-1,954,944,978,-1,978,944,949,-1,852,955,853,-1,853,955,980,-1,955,975,980,-1,980,975,999,-1,963,987,989,-1,963,989,965,-1,965,989,991,-1,965,991,967,-1,967,991,993,-1,967,993,969,-1,969,993,995,-1,969,995,971,-1,971,995,997,-1,971,997,973,-1,973,997,999,-1,973,999,975,-1,894,877,893,-1,893,877,878,-1,893,878,1026,-1,1026,878,1027,-1,1027,878,1028,-1,1027,1028,1029,-1,1030,1031,1032,-1,1032,1031,1033,-1,1032,1033,1034,-1,1034,1033,1035,-1,1034,1035,1036,-1,1036,1035,1037,-1,1036,1037,1038,-1,1037,1039,1038,-1,1038,1039,1040,-1,1038,1040,1041,-1,1041,1040,1042,-1,1041,1042,1043,-1,1043,1042,1044,-1,1043,1044,1045,-1,1045,1044,1046,-1,1045,1046,1028,-1,1028,1046,1047,-1,1028,1047,1048,-1,1048,1049,1028,-1,1028,1049,1050,-1,1028,1050,1029,-1,1028,878,764,-1,764,878,768,-1,893,1026,787,-1,787,1026,788,-1,1047,790,799,-1,1047,799,1048,-1,1048,799,798,-1,1048,798,1049,-1,1049,798,763,-1,1049,763,1050,-1,1050,763,762,-1,1050,762,1029,-1,1029,762,789,-1,1029,789,1027,-1,1027,789,788,-1,1027,788,1026,-1,1047,1046,790,-1,790,1046,792,-1,1033,771,1035,-1,1035,771,773,-1,1035,773,1037,-1,1037,773,775,-1,1037,775,1039,-1,1039,775,777,-1,1039,777,1040,-1,1040,777,797,-1,1040,797,1042,-1,1042,797,796,-1,1042,796,1044,-1,1044,796,794,-1,1044,794,1046,-1,1046,794,792,-1,1051,769,1052,-1,1052,769,771,-1,1052,771,1053,-1,1053,771,1033,-1,1054,1055,1056,-1,1033,1031,1053,-1,1053,1031,1057,-1,1053,1057,1058,-1,1054,1056,1052,-1,1052,1056,1059,-1,1052,1059,1051,-1,1060,1061,1058,-1,1058,1061,1062,-1,1058,1062,1053,-1,1063,1064,1053,-1,1053,1064,1052,-1,1065,1030,1063,-1,1063,1030,1032,-1,1063,1032,1064,-1,1032,772,1064,-1,1064,772,770,-1,1064,770,1066,-1,1067,1068,1069,-1,1069,1068,1064,-1,1069,1064,1070,-1,1070,1064,1066,-1,1071,1072,1073,-1,1065,1063,1073,-1,1073,1063,1074,-1,1073,1074,1071,-1,1045,791,793,-1,1045,793,1043,-1,1043,793,795,-1,1043,795,1041,-1,1041,795,778,-1,1041,778,1038,-1,1038,778,776,-1,1038,776,1036,-1,1036,776,774,-1,1036,774,1034,-1,1034,774,772,-1,1034,772,1032,-1,1045,1028,791,-1,791,1028,764,-1,874,891,875,-1,875,891,890,-1,875,890,876,-1,876,890,923,-1,876,923,879,-1,879,923,922,-1,879,922,880,-1,880,922,921,-1,880,921,881,-1,881,921,920,-1,881,920,828,-1,828,920,919,-1,828,919,829,-1,829,919,918,-1,877,894,873,-1,873,894,895,-1,873,895,874,-1,874,895,892,-1,874,892,891,-1,829,918,830,-1,830,918,916,-1,830,916,834,-1,916,912,834,-1,834,912,914,-1,834,914,862,-1,862,914,915,-1,862,915,859,-1,859,915,924,-1,859,924,860,-1,924,926,860,-1,860,926,929,-1,860,929,866,-1,866,929,928,-1,866,928,865,-1,865,928,927,-1,865,927,868,-1,868,927,653,-1,868,653,652,-1,1052,1064,1068,-1,1052,1068,1054,-1,1054,1068,1067,-1,1054,1067,1055,-1,1055,1067,1069,-1,1055,1069,1056,-1,1056,1069,1070,-1,1056,1070,1059,-1,1059,1070,1066,-1,1059,1066,1051,-1,1051,1066,770,-1,1051,770,769,-1,1063,1053,1062,-1,1063,1062,1074,-1,1074,1062,1061,-1,1074,1061,1071,-1,1071,1061,1060,-1,1071,1060,1072,-1,1072,1060,1058,-1,1072,1058,1073,-1,1073,1058,1057,-1,1073,1057,1065,-1,1065,1057,1031,-1,1065,1031,1030,-1,1015,1002,1009,-1,1015,1009,1021,-1,1021,1009,1008,-1,1021,1008,1022,-1,1022,1008,1005,-1,1022,1005,1023,-1,1023,1005,1006,-1,1023,1006,1024,-1,1024,1006,1007,-1,1024,1007,1025,-1,1025,1007,961,-1,1025,961,960,-1,1003,1014,1020,-1,1003,1020,1010,-1,1010,1020,1019,-1,1010,1019,1011,-1,1011,1019,1018,-1,1011,1018,1012,-1,1012,1018,1017,-1,1012,1017,1013,-1,1013,1017,1016,-1,1013,1016,1004,-1,1004,1016,986,-1,1004,986,985,-1,844,941,850,-1,850,941,940,-1,850,940,849,-1,849,940,939,-1,849,939,854,-1,854,939,942,-1,854,942,851,-1,838,906,846,-1,846,906,907,-1,846,907,843,-1,843,907,936,-1,843,936,844,-1,844,936,938,-1,844,938,941,-1,832,909,837,-1,837,909,908,-1,837,908,838,-1,838,908,905,-1,838,905,906,-1,869,934,863,-1,863,934,933,-1,863,933,864,-1,933,932,864,-1,864,932,931,-1,864,931,870,-1,870,931,930,-1,870,930,871,-1,871,930,925,-1,871,925,872,-1,872,925,913,-1,872,913,861,-1,861,913,917,-1,861,917,833,-1,833,917,911,-1,833,911,831,-1,831,911,910,-1,831,910,832,-1,832,910,909,-1,836,900,840,-1,840,900,897,-1,840,897,841,-1,897,896,841,-1,841,896,898,-1,841,898,842,-1,842,898,899,-1,842,899,822,-1,822,899,889,-1,822,889,823,-1,889,888,823,-1,823,888,952,-1,823,952,824,-1,824,952,951,-1,824,951,825,-1,825,951,950,-1,825,950,826,-1,826,950,953,-1,826,953,827,-1,848,945,856,-1,856,945,943,-1,856,943,857,-1,857,943,937,-1,857,937,858,-1,858,937,904,-1,858,904,845,-1,845,904,903,-1,845,903,839,-1,839,903,902,-1,839,902,835,-1,835,902,901,-1,835,901,836,-1,836,901,900,-1,855,948,847,-1,847,948,947,-1,847,947,848,-1,848,947,946,-1,848,946,945,-1,101,413,102,-1,102,413,412,-1,102,412,99,-1,99,412,438,-1,99,438,100,-1,100,438,437,-1,100,437,104,-1,104,437,457,-1,104,457,105,-1,105,457,459,-1,105,459,106,-1,106,459,460,-1,444,98,415,-1,415,98,97,-1,415,97,416,-1,416,97,93,-1,416,93,418,-1,418,93,92,-1,418,92,425,-1,425,92,90,-1,425,90,422,-1,422,90,89,-1,422,89,421,-1,421,89,94,-1,260,259,476,-1,476,259,477,-1,297,296,507,-1,507,296,481,-1,1075,1076,720,-1,720,1076,1077,-1,720,1077,718,-1,718,1077,1078,-1,1075,1079,1076,-1,1076,1079,1080,-1,1076,1080,1081,-1,1081,1082,1076,-1,1076,1082,1083,-1,1076,1083,1084,-1,1085,1086,1087,-1,1085,1087,1077,-1,1077,1087,1088,-1,1077,1088,1078,-1,1089,1090,1076,-1,1076,1090,1077,-1,1091,1092,1089,-1,1093,1094,1095,-1,1095,1094,1090,-1,1095,1090,1096,-1,1089,1092,1090,-1,1097,1098,1099,-1,1100,721,1092,-1,1092,721,719,-1,1092,719,1090,-1,1090,719,1101,-1,1090,1101,1096,-1,1091,1089,1099,-1,1099,1089,1102,-1,1099,1102,1097,-1,1103,267,262,-1,1103,262,1104,-1,262,723,1104,-1,1104,723,721,-1,1104,721,1100,-1,1075,720,1105,-1,1105,720,722,-1,1105,722,1106,-1,1106,722,473,-1,1106,473,472,-1,1106,1103,1105,-1,1105,1103,1104,-1,1105,1104,1075,-1,1075,1104,1100,-1,1075,1100,1079,-1,1079,1100,1092,-1,719,718,1078,-1,719,1078,1101,-1,1101,1078,1088,-1,1101,1088,1096,-1,1096,1088,1087,-1,1096,1087,1095,-1,1095,1087,1086,-1,1095,1086,1093,-1,1093,1086,1085,-1,1093,1085,1094,-1,1094,1085,1077,-1,1094,1077,1090,-1,1079,1092,1091,-1,1079,1091,1080,-1,1080,1091,1099,-1,1080,1099,1081,-1,1081,1099,1098,-1,1081,1098,1082,-1,1082,1098,1097,-1,1082,1097,1083,-1,1083,1097,1102,-1,1083,1102,1084,-1,1084,1102,1089,-1,1084,1089,1076,-1,501,292,502,-1,502,292,291,-1,502,291,505,-1,505,291,288,-1,505,288,495,-1,495,288,270,-1,495,270,494,-1,494,270,269,-1,494,269,471,-1,471,269,268,-1,471,268,472,-1,472,268,267,-1,472,267,1106,-1,1106,267,1103,-1,481,296,482,-1,482,296,295,-1,482,295,484,-1,484,295,303,-1,484,303,485,-1,485,303,302,-1,485,302,511,-1,511,302,301,-1,511,301,512,-1,512,301,274,-1,512,274,513,-1,513,274,304,-1,297,507,298,-1,298,507,506,-1,298,506,283,-1,283,506,475,-1,283,475,284,-1,284,475,474,-1,284,474,286,-1,286,474,480,-1,286,480,287,-1,287,480,479,-1,287,479,259,-1,259,479,477,-1,
        ]
    }
}
Shape{
    appearance Appearance {
        material  Material {
            diffuseColor 1.0 1.0 1.0
            specularColor 0.8784313725490196 0.8784313725490196 0.8784313725490196
            ambientIntensity 1.0
            transparency 0.0
            shininess 0.5
        }
    }
    geometry IndexedFaceSet {
        ccw TRUE
        solid FALSE
        coord DEF co Coordinate {
            point [
                0.6674 -0.2892 -0.622, 0.821 0.1045 -0.622, 0.6674 -0.2892 -0.6299, 0.821 0.1045 -0.6299, 0.7634 0.1045 -0.622, 0.7634 0.1045 -0.6299, 0.7236 -0.006 -0.622, 0.7236 -0.006 -0.6299, 0.5609 -0.006 -0.622, 0.5609 -0.006 -0.6299, 0.5233 0.1045 -0.622, 0.5233 0.1045 -0.6299, 0.4657 0.1045 -0.622, 0.4657 0.1045 -0.6299, 0.6146 -0.2892 -0.622, 0.6146 -0.2892 -0.6299, 0.5742 -0.0492 -0.622, 0.6329 -0.2136 -0.622, 0.6367 -0.2273 -0.622, 0.6392 -0.2412 -0.622, 0.6405 -0.2412 -0.622, 0.6431 -0.2273 -0.622, 0.7059 -0.0492 -0.622, 0.6466 -0.2136 -0.622, 0.5742 -0.0492 -0.6299, 0.7059 -0.0492 -0.6299, 0.6329 -0.2136 -0.6299, 0.6367 -0.2273 -0.6299, 0.6392 -0.2412 -0.6299, 0.6405 -0.2412 -0.6299, 0.6431 -0.2273 -0.6299, 0.6466 -0.2136 -0.6299, 0.2271 0.1045 -0.622, 0.12 0.1045 -0.622, 0.2271 0.1045 -0.6299, 0.12 0.1045 -0.6299, 0.12 -0.2892 -0.622, 0.12 -0.2892 -0.6299, 0.2311 -0.2892 -0.622, 0.2311 -0.2892 -0.6299, 0.4369 -0.0973 -0.622, 0.4369 -0.0973 -0.6299, 0.4341 -0.1341 -0.6299, 0.4341 -0.1341 -0.622, 0.4236 -0.1729 -0.6299, 0.4236 -0.1729 -0.622, 0.4054 -0.2068 -0.6299, 0.4054 -0.2068 -0.622, 0.3776 -0.2376 -0.6299, 0.3776 -0.2376 -0.622, 0.3768 -0.2384 -0.6299, 0.3768 -0.2384 -0.622, 0.3339 -0.2671 -0.6299, 0.3339 -0.2671 -0.622, 0.288 -0.2832 -0.6299, 0.288 -0.2832 -0.622, 0.2759 0.1002 -0.6299, 0.2759 0.1002 -0.622, 0.3212 0.0867 -0.6299, 0.3212 0.0867 -0.622, 0.3623 0.0628 -0.6299, 0.3623 0.0628 -0.622, 0.3947 0.0317 -0.6299, 0.3947 0.0317 -0.622, 0.4173 -0.0035 -0.6299, 0.4173 -0.0035 -0.622, 0.4314 -0.0447 -0.6299, 0.4314 -0.0447 -0.622, 0.3579 -0.1908 -0.622, 0.3388 -0.2111 -0.622, 0.31 -0.2297 -0.622, 0.2775 -0.2411 -0.622, 0.2309 -0.246 -0.622, 0.1728 -0.246 -0.622, 0.1728 0.0612 -0.622, 0.2287 0.0612 -0.622, 0.2703 0.0574 -0.622, 0.3034 0.047 -0.622, 0.3302 0.0311 -0.622, 0.3523 0.0093 -0.622, 0.3689 -0.0179 -0.622, 0.3805 -0.0549 -0.622, 0.3841 -0.0962 -0.622, 0.3808 -0.1354 -0.622, 0.3716 -0.1665 -0.622, 0.2309 -0.246 -0.6299, 0.1728 -0.246 -0.6299, 0.2775 -0.2411 -0.6299, 0.31 -0.2297 -0.6299, 0.3388 -0.2111 -0.6299, 0.3579 -0.1908 -0.6299, 0.3716 -0.1665 -0.6299, 0.3808 -0.1354 -0.6299, 0.3841 -0.0962 -0.6299, 0.3805 -0.0549 -0.6299, 0.3689 -0.0179 -0.6299, 0.3523 0.0093 -0.6299, 0.3302 0.0311 -0.6299, 0.3034 0.047 -0.6299, 0.2703 0.0574 -0.6299, 0.2287 0.0612 -0.6299, 0.1728 0.0612 -0.6299, 0.0432 0.0612 -0.622, 0.0432 0.1045 -0.622, 0.0432 0.0612 -0.6299, 0.0432 0.1045 -0.6299, -0.168 0.1045 -0.622, -0.168 0.1045 -0.6299, -0.168 -0.2892 -0.622, -0.168 -0.2892 -0.6299, 0.0336 -0.2892 -0.622, 0.0336 -0.2892 -0.6299, 0.0336 -0.246 -0.622, 0.0336 -0.246 -0.6299, -0.1152 -0.246 -0.622, -0.1152 -0.246 -0.6299, -0.1152 -0.1164 -0.622, -0.1152 -0.1164 -0.6299, 0.024 -0.1164 -0.622, 0.024 -0.1164 -0.6299, 0.024 -0.0732 -0.622, 0.024 -0.0732 -0.6299, -0.1152 -0.0732 -0.622, -0.1152 -0.0732 -0.6299, -0.1152 0.0612 -0.622, -0.1152 0.0612 -0.6299, -0.2449 0.0408 -0.622, -0.2449 0.084 -0.622, -0.2449 0.0408 -0.6299, -0.2449 0.084 -0.6299, -0.3532 0.1093 -0.622, -0.3532 0.1093 -0.6299, -0.3424 0.1091 -0.6299, -0.3424 0.1091 -0.622, -0.2868 0.1013 -0.6299, -0.2868 0.1013 -0.622, -0.5377 -0.085 -0.622, -0.5377 -0.085 -0.6299, -0.5339 -0.0394 -0.6299, -0.5339 -0.0394 -0.622, -0.5221 0.0023 -0.6299, -0.5221 0.0023 -0.622, -0.5011 0.0397 -0.6299, -0.5011 0.0397 -0.622, -0.4715 0.0709 -0.6299, -0.4715 0.0709 -0.622, -0.4399 0.0911 -0.6299, -0.4399 0.0911 -0.622, -0.4017 0.1042 -0.6299, -0.4017 0.1042 -0.622, -0.3375 -0.294 -0.622, -0.3375 -0.294 -0.6299, -0.3767 -0.2909 -0.622, -0.3672 -0.2916 -0.6299, -0.3767 -0.2909 -0.6299, -0.4206 -0.2782 -0.6299, -0.4206 -0.2782 -0.622, -0.4581 -0.2568 -0.6299, -0.4581 -0.2568 -0.622, -0.4937 -0.2226 -0.6299, -0.4937 -0.2226 -0.622, -0.5168 -0.1858 -0.6299, -0.5168 -0.1858 -0.622, -0.5321 -0.1409 -0.6299, -0.5321 -0.1409 -0.622, -0.3027 -0.2916 -0.6299, -0.2904 -0.2908 -0.622, -0.2904 -0.2908 -0.6299, -0.2449 -0.2784 -0.622, -0.2449 -0.2784 -0.6299, -0.2449 -0.2256 -0.622, -0.2449 -0.2256 -0.6299, -0.3371 -0.2508 -0.622, -0.3371 -0.2508 -0.6299, -0.2892 -0.2446 -0.6299, -0.2892 -0.2446 -0.622, -0.4849 -0.0882 -0.622, -0.4849 -0.0882 -0.6299, -0.483 -0.1188 -0.6299, -0.483 -0.1188 -0.622, -0.4726 -0.161 -0.6299, -0.4726 -0.161 -0.622, -0.4563 -0.1914 -0.6299, -0.4563 -0.1914 -0.622, -0.4325 -0.2176 -0.6299, -0.4325 -0.2176 -0.622, -0.4053 -0.2358 -0.6299, -0.4053 -0.2358 -0.622, -0.3758 -0.2465 -0.6299, -0.3758 -0.2465 -0.622, -0.3459 0.066 -0.622, -0.3459 0.066 -0.6299, -0.3826 0.0619 -0.6299, -0.3826 0.0619 -0.622, -0.4113 0.0514 -0.6299, -0.4113 0.0514 -0.622, -0.4355 0.0351 -0.6299, -0.4355 0.0351 -0.622, -0.454 0.0156 -0.6299, -0.454 0.0156 -0.622, -0.4702 -0.0117 -0.6299, -0.4702 -0.0117 -0.622, -0.4809 -0.0456 -0.6299, -0.4809 -0.0456 -0.622, -0.2519 0.0447 -0.6299, -0.2519 0.0447 -0.622, -0.2937 0.0602 -0.6299, -0.2937 0.0602 -0.622, -0.5713 0.0612 -0.622, -0.5713 0.1045 -0.622, -0.5713 0.0612 -0.6299, -0.5713 0.1045 -0.6299, -0.773 0.1045 -0.622, -0.773 0.1045 -0.6299, -0.773 -0.2892 -0.622, -0.773 -0.2892 -0.6299, -0.7202 -0.2892 -0.622, -0.7202 -0.2892 -0.6299, -0.7202 0.0612 -0.622, -0.7202 0.0612 -0.6299
            ]
        }
        coordIndex [
            0,1,2,-1,2,1,3,-1,1,4,3,-1,3,4,5,-1,4,6,5,-1,5,6,7,-1,6,8,7,-1,7,8,9,-1,8,10,9,-1,9,10,11,-1,10,12,11,-1,11,12,13,-1,12,14,13,-1,13,14,15,-1,14,0,15,-1,15,0,2,-1,16,17,14,-1,12,10,8,-1,17,18,14,-1,14,18,19,-1,14,19,0,-1,0,19,20,-1,0,20,21,-1,14,12,16,-1,16,12,8,-1,16,8,22,-1,22,8,6,-1,21,23,0,-1,0,23,22,-1,0,22,1,-1,1,22,6,-1,1,6,4,-1,16,22,24,-1,24,22,25,-1,17,16,26,-1,26,16,24,-1,17,26,27,-1,17,27,18,-1,18,27,28,-1,18,28,19,-1,20,19,29,-1,29,19,28,-1,20,29,30,-1,20,30,21,-1,21,30,31,-1,21,31,23,-1,22,23,25,-1,25,23,31,-1,32,33,34,-1,34,33,35,-1,33,36,35,-1,35,36,37,-1,36,38,37,-1,37,38,39,-1,40,41,42,-1,40,42,43,-1,43,42,44,-1,43,44,45,-1,45,44,46,-1,45,46,47,-1,47,46,48,-1,47,48,49,-1,49,48,50,-1,49,50,51,-1,51,50,52,-1,51,52,53,-1,53,52,54,-1,53,54,55,-1,55,54,39,-1,55,39,38,-1,32,34,56,-1,32,56,57,-1,57,56,58,-1,57,58,59,-1,59,58,60,-1,59,60,61,-1,61,60,62,-1,61,62,63,-1,63,62,64,-1,63,64,65,-1,65,64,66,-1,65,66,67,-1,67,66,41,-1,67,41,40,-1,45,47,68,-1,68,47,49,-1,68,49,69,-1,69,49,51,-1,69,51,70,-1,70,51,53,-1,70,53,71,-1,71,53,55,-1,71,55,72,-1,72,55,38,-1,72,38,73,-1,73,38,36,-1,73,36,74,-1,74,36,33,-1,74,33,75,-1,75,33,32,-1,75,32,76,-1,76,32,57,-1,76,57,77,-1,77,57,59,-1,77,59,78,-1,78,59,61,-1,78,61,79,-1,79,61,63,-1,79,63,80,-1,80,63,65,-1,80,65,81,-1,81,65,67,-1,81,67,82,-1,82,67,40,-1,82,40,83,-1,83,40,43,-1,83,43,84,-1,84,43,45,-1,84,45,68,-1,72,73,85,-1,85,73,86,-1,72,85,87,-1,72,87,71,-1,71,87,88,-1,71,88,70,-1,70,88,89,-1,70,89,69,-1,69,89,90,-1,69,90,68,-1,68,90,91,-1,68,91,84,-1,84,91,92,-1,84,92,83,-1,83,92,93,-1,83,93,82,-1,82,93,94,-1,82,94,81,-1,81,94,95,-1,81,95,80,-1,80,95,96,-1,80,96,79,-1,79,96,97,-1,79,97,78,-1,78,97,98,-1,78,98,77,-1,77,98,99,-1,77,99,76,-1,76,99,100,-1,76,100,75,-1,74,75,101,-1,101,75,100,-1,73,74,86,-1,86,74,101,-1,102,103,104,-1,104,103,105,-1,103,106,105,-1,105,106,107,-1,106,108,107,-1,107,108,109,-1,108,110,109,-1,109,110,111,-1,110,112,111,-1,111,112,113,-1,112,114,113,-1,113,114,115,-1,114,116,115,-1,115,116,117,-1,116,118,117,-1,117,118,119,-1,118,120,119,-1,119,120,121,-1,120,122,121,-1,121,122,123,-1,122,124,123,-1,123,124,125,-1,124,102,125,-1,125,102,104,-1,106,103,102,-1,102,124,106,-1,106,124,122,-1,106,122,108,-1,112,110,114,-1,114,110,108,-1,114,108,116,-1,116,108,122,-1,116,122,118,-1,118,122,120,-1,126,127,128,-1,128,127,129,-1,130,131,132,-1,130,132,133,-1,133,132,134,-1,133,134,135,-1,135,134,129,-1,135,129,127,-1,136,137,138,-1,136,138,139,-1,139,138,140,-1,139,140,141,-1,141,140,142,-1,141,142,143,-1,143,142,144,-1,143,144,145,-1,145,144,146,-1,145,146,147,-1,147,146,148,-1,147,148,149,-1,149,148,131,-1,149,131,130,-1,150,151,152,-1,152,151,153,-1,153,154,152,-1,152,154,155,-1,152,155,156,-1,156,155,157,-1,156,157,158,-1,158,157,159,-1,158,159,160,-1,160,159,161,-1,160,161,162,-1,162,161,163,-1,162,163,164,-1,164,163,137,-1,164,137,136,-1,151,150,165,-1,165,150,166,-1,165,166,167,-1,167,166,168,-1,167,168,169,-1,168,170,169,-1,169,170,171,-1,172,173,174,-1,172,174,175,-1,175,174,171,-1,175,171,170,-1,176,177,178,-1,176,178,179,-1,179,178,180,-1,179,180,181,-1,181,180,182,-1,181,182,183,-1,183,182,184,-1,183,184,185,-1,185,184,186,-1,185,186,187,-1,187,186,188,-1,187,188,189,-1,189,188,173,-1,189,173,172,-1,190,191,192,-1,190,192,193,-1,193,192,194,-1,193,194,195,-1,195,194,196,-1,195,196,197,-1,197,196,198,-1,197,198,199,-1,199,198,200,-1,199,200,201,-1,201,200,202,-1,201,202,203,-1,203,202,177,-1,203,177,176,-1,126,128,204,-1,126,204,205,-1,205,204,206,-1,205,206,207,-1,207,206,191,-1,207,191,190,-1,193,130,190,-1,190,130,133,-1,190,133,207,-1,207,133,135,-1,207,135,205,-1,205,135,127,-1,205,127,126,-1,170,168,175,-1,175,168,166,-1,175,166,172,-1,172,166,150,-1,172,150,189,-1,189,150,152,-1,189,152,187,-1,187,152,156,-1,187,156,185,-1,185,156,158,-1,185,158,183,-1,183,158,160,-1,183,160,181,-1,181,160,162,-1,181,162,179,-1,179,162,164,-1,179,164,176,-1,176,164,136,-1,176,136,203,-1,203,136,139,-1,203,139,201,-1,201,139,141,-1,201,141,199,-1,199,141,143,-1,199,143,197,-1,197,143,145,-1,197,145,195,-1,195,145,147,-1,195,147,193,-1,193,147,149,-1,193,149,130,-1,208,209,210,-1,210,209,211,-1,209,212,211,-1,211,212,213,-1,212,214,213,-1,213,214,215,-1,214,216,215,-1,215,216,217,-1,216,218,217,-1,217,218,219,-1,218,208,219,-1,219,208,210,-1,216,214,218,-1,218,214,212,-1,218,212,208,-1,208,212,209,-1,
        ]
    }
}
Shape{
    appearance Appearance {
        material  Material {
            diffuseColor 0.6666666666666666 0.6666666666666666 0.6666666666666666
            specularColor 0.4666666666666667 0.4666666666666667 0.4666666666666667
            ambientIntensity 0.6667
            transparency 0.0
            shininess 0.5
        }
    }
    geometry IndexedFaceSet {
        ccw TRUE
        solid FALSE
        coord DEF co Coordinate {
            point [
                0.5742 -0.0492 -0.6299, 0.7059 -0.0492 -0.6299, 0.6329 -0.2136 -0.6299, 0.6466 -0.2136 -0.6299, 0.6367 -0.2273 -0.6299, 0.6431 -0.2273 -0.6299, 0.6392 -0.2412 -0.6299, 0.6405 -0.2412 -0.6299, 0.1728 -0.246 -0.6299, 0.1728 0.0612 -0.6299, 0.2309 -0.246 -0.6299, 0.2287 0.0612 -0.6299, 0.2703 0.0574 -0.6299, 0.3841 -0.0962 -0.6299, 0.3808 -0.1354 -0.6299, 0.3716 -0.1665 -0.6299, 0.2775 -0.2411 -0.6299, 0.3034 0.047 -0.6299, 0.3302 0.0311 -0.6299, 0.3523 0.0093 -0.6299, 0.3689 -0.0179 -0.6299, 0.3805 -0.0549 -0.6299, 0.3579 -0.1908 -0.6299, 0.3388 -0.2111 -0.6299, 0.31 -0.2297 -0.6299, 0.9055 0.4036 -0.5118, 0.9055 0.3248 -0.5118, 0.9055 0.4036 -0.6299, 0.9055 0.3248 -0.6299, -0.8268 0.4823 -0.6299, -0.8268 0.4823 -0.5118, -0.2065 0.4823 -0.6299, 0.8268 0.4823 -0.5118, 0.8268 0.4823 -0.6299, -0.9055 0.4036 -0.6299, -0.9055 0.3248 -0.6299, -0.9055 0.4036 -0.5118, -0.9055 0.3248 -0.5118, 0.9028 0.4239 -0.6299, 0.9028 0.4239 -0.5118, 0.895 0.4429 -0.6299, 0.895 0.4429 -0.5118, 0.8824 0.4592 -0.6299, 0.8824 0.4592 -0.5118, 0.8661 0.4717 -0.6299, 0.8661 0.4717 -0.5118, 0.8472 0.4796 -0.6299, 0.8472 0.4796 -0.5118, -0.8472 0.4796 -0.6299, -0.8472 0.4796 -0.5118, -0.8661 0.4717 -0.6299, -0.8661 0.4717 -0.5118, -0.8824 0.4592 -0.6299, -0.8824 0.4592 -0.5118, -0.895 0.4429 -0.6299, -0.895 0.4429 -0.5118, -0.9028 0.4239 -0.6299, -0.9028 0.4239 -0.5118, -0.9082 0.3044 -0.5118, -0.9082 0.3044 -0.6299, -0.9161 0.2854 -0.5118, -0.9161 0.2854 -0.6299, -0.9286 0.2691 -0.5118, -0.9286 0.2691 -0.6299, -0.9449 0.2566 -0.5118, -0.9449 0.2566 -0.6299, -0.9639 0.2488 -0.5118, -0.9639 0.2488 -0.6299, -0.9843 0.2461 -0.5118, -0.9843 0.2461 -0.6299, 0.9843 0.2461 -0.5118, 0.9843 0.2461 -0.6299, 0.9639 0.2488 -0.5118, 0.9639 0.2488 -0.6299, 0.9449 0.2566 -0.5118, 0.9449 0.2566 -0.6299, 0.9286 0.2691 -0.5118, 0.9286 0.2691 -0.6299, 0.9161 0.2854 -0.5118, 0.9161 0.2854 -0.6299, 0.9082 0.3044 -0.5118, 0.9082 0.3044 -0.6299
            ]
        }
        coordIndex [
            0,1,2,-1,2,1,3,-1,2,3,4,-1,4,3,5,-1,4,5,6,-1,6,5,7,-1,8,9,10,-1,10,9,11,-1,10,11,12,-1,13,14,10,-1,10,14,15,-1,10,15,16,-1,12,17,10,-1,10,17,18,-1,10,18,19,-1,19,20,10,-1,10,20,21,-1,10,21,13,-1,22,23,15,-1,15,23,24,-1,15,24,16,-1,25,26,27,-1,27,26,28,-1,29,30,31,-1,31,30,32,-1,31,32,33,-1,34,35,36,-1,36,35,37,-1,25,27,38,-1,25,38,39,-1,39,38,40,-1,39,40,41,-1,41,40,42,-1,41,42,43,-1,43,42,44,-1,43,44,45,-1,45,44,46,-1,45,46,47,-1,47,46,33,-1,47,33,32,-1,30,29,48,-1,30,48,49,-1,49,48,50,-1,49,50,51,-1,51,50,52,-1,51,52,53,-1,53,52,54,-1,53,54,55,-1,55,54,56,-1,55,56,57,-1,57,56,34,-1,57,34,36,-1,37,35,58,-1,58,35,59,-1,58,59,60,-1,60,59,61,-1,60,61,62,-1,62,61,63,-1,62,63,64,-1,64,63,65,-1,64,65,66,-1,66,65,67,-1,66,67,68,-1,68,67,69,-1,70,71,72,-1,72,71,73,-1,72,73,74,-1,74,73,75,-1,74,75,76,-1,76,75,77,-1,76,77,78,-1,78,77,79,-1,78,79,80,-1,80,79,81,-1,80,81,26,-1,26,81,28,-1,
        ]
    }
}